<svg width="126" height="126" viewBox="0 0 126 126" fill="none" xmlns="http://www.w3.org/2000/svg">
<g id="fluent-emoji:health-worker">
<g id="Group">
<path id="Vector" d="M62.374 61.1769C51.5852 61.1769 41.5052 65.3507 33.9846 72.3595V118.625H90.6059V72.2413C82.9287 65.1226 72.8437 61.1701 62.374 61.1769Z" fill="url(#paint0_radial_42_125)"/>
<path id="Vector_2" d="M62.374 61.1769C51.5852 61.1769 41.5052 65.3507 33.9846 72.3595V118.625H90.6059V72.2413C82.9287 65.1226 72.8437 61.1701 62.374 61.1769Z" fill="url(#paint1_linear_42_125)"/>
<path id="Vector_3" d="M62.374 61.1769C51.5852 61.1769 41.5052 65.3507 33.9846 72.3595V118.625H90.6059V72.2413C82.9287 65.1226 72.8437 61.1701 62.374 61.1769Z" fill="url(#paint2_linear_42_125)"/>
<path id="Vector_4" d="M62.374 61.1769C51.5852 61.1769 41.5052 65.3507 33.9846 72.3595V118.625H90.6059V72.2413C82.9287 65.1226 72.8437 61.1701 62.374 61.1769Z" fill="url(#paint3_linear_42_125)"/>
<path id="Vector_5" d="M62.374 61.1769C51.5852 61.1769 41.5052 65.3507 33.9846 72.3595V118.625H90.6059V72.2413C82.9287 65.1226 72.8437 61.1701 62.374 61.1769Z" fill="url(#paint4_radial_42_125)"/>
<path id="Vector_6" d="M62.374 61.1769C51.5852 61.1769 41.5052 65.3507 33.9846 72.3595V118.625H90.6059V72.2413C82.9287 65.1226 72.8437 61.1701 62.374 61.1769Z" fill="url(#paint5_radial_42_125)"/>
<path id="Vector_7" d="M62.374 61.1769C51.5852 61.1769 41.5052 65.3507 33.9846 72.3595V118.625H90.6059V72.2413C82.9287 65.1226 72.8437 61.1701 62.374 61.1769Z" fill="url(#paint6_radial_42_125)"/>
<path id="Vector_8" d="M63.8269 61.1769C64.8113 61.2163 65.835 61.2951 66.8588 61.3738C65.835 61.2951 64.8507 61.2163 63.8269 61.1769Z" fill="url(#paint7_linear_42_125)"/>
<path id="Vector_9" d="M62.5275 61.1769H62.37C62.7638 61.1769 63.1181 61.1769 63.5119 61.2163C63.1969 61.1769 62.8425 61.1769 62.5275 61.1769Z" fill="url(#paint8_linear_42_125)"/>
<path id="Vector_10" d="M22.7588 90.1569L22.6407 90.4719C20.5932 96.9688 19.53 103.702 19.53 110.514V118.625H33.9807V72.3594C28.776 77.2317 24.9116 83.3604 22.7588 90.1569Z" fill="url(#paint9_radial_42_125)"/>
<path id="Vector_11" d="M22.7588 90.1569L22.6407 90.4719C20.5932 96.9688 19.53 103.702 19.53 110.514V118.625H33.9807V72.3594C28.776 77.2317 24.9116 83.3604 22.7588 90.1569Z" fill="url(#paint10_radial_42_125)"/>
<path id="Vector_12" d="M22.7588 90.1569L22.6407 90.4719C20.5932 96.9688 19.53 103.702 19.53 110.514V118.625H33.9807V72.3594C28.776 77.2317 24.9116 83.3604 22.7588 90.1569Z" fill="url(#paint11_linear_42_125)"/>
<path id="Vector_13" d="M105.056 110.632C105.096 103.741 104.072 96.89 102.025 90.3144C99.8196 83.2269 95.8033 77.045 90.6058 72.2413V118.625H104.978L105.056 110.632Z" fill="url(#paint12_radial_42_125)"/>
<path id="Vector_14" d="M105.056 110.632C105.096 103.741 104.072 96.89 102.025 90.3144C99.8196 83.2269 95.8033 77.045 90.6058 72.2413V118.625H104.978L105.056 110.632Z" fill="url(#paint13_radial_42_125)"/>
<path id="Vector_15" d="M105.056 110.632C105.096 103.741 104.072 96.89 102.025 90.3144C99.8196 83.2269 95.8033 77.045 90.6058 72.2413V118.625H104.978L105.056 110.632Z" fill="url(#paint14_linear_42_125)"/>
<path id="Vector_16" d="M64.3703 89.1489C64.3703 88.9914 64.3309 88.3496 64.3703 88.1921L74.8519 63.4252C74.8913 63.3071 74.97 63.189 75.0094 63.1102C71.0325 61.8502 66.8194 61.1808 62.4882 61.1808C58.1175 61.1808 53.865 61.8896 49.8488 63.1496C49.8882 63.2283 49.9669 63.3465 50.0063 63.4252L60.4013 88.4677C60.4407 88.5858 60.6178 88.6646 60.6178 88.8221L60.8344 102.997H60.8738V118.629H63.9844V102.997L64.2915 89.5466L64.3703 89.1528V89.1489Z" fill="url(#paint15_radial_42_125)"/>
<path id="Vector_17" d="M64.3703 89.1489C64.3703 88.9914 64.3309 88.3496 64.3703 88.1921L74.8519 63.4252C74.8913 63.3071 74.97 63.189 75.0094 63.1102C71.0325 61.8502 66.8194 61.1808 62.4882 61.1808C58.1175 61.1808 53.865 61.8896 49.8488 63.1496C49.8882 63.2283 49.9669 63.3465 50.0063 63.4252L60.4013 88.4677C60.4407 88.5858 60.6178 88.6646 60.6178 88.8221L60.8344 102.997H60.8738V118.629H63.9844V102.997L64.2915 89.5466L64.3703 89.1528V89.1489Z" fill="url(#paint16_radial_42_125)"/>
<path id="Vector_18" d="M63.8269 61.1769C64.8113 61.2163 65.835 61.2951 66.8588 61.3738C65.835 61.2951 64.8507 61.2163 63.8269 61.1769Z" fill="url(#paint17_linear_42_125)"/>
<path id="Vector_19" d="M62.5275 61.1769H62.37C62.7638 61.1769 63.1181 61.1769 63.5119 61.2163C63.1969 61.1769 62.8425 61.1769 62.5275 61.1769Z" fill="url(#paint18_linear_42_125)"/>
<g id="Group_2" filter="url(#filter0_f_42_125)">
<path id="Vector_20" d="M39.6192 79.8603L42.5014 80.3722C42.6482 80.3991 42.7852 80.4646 42.8982 80.5621C43.0112 80.6595 43.0962 80.7853 43.1443 80.9266C43.1925 81.0678 43.2021 81.2194 43.1721 81.3656C43.1422 81.5117 43.0737 81.6473 42.9739 81.7582L40.2019 84.7901C40.0587 84.9528 39.9831 85.164 39.9904 85.3806C39.9977 85.5973 40.0875 85.8029 40.2413 85.9556L57.9797 104.064C58.4168 104.501 59.1846 104.21 59.1846 103.592V90.4798C59.1846 90.338 59.1452 90.2278 59.1137 90.0821L49.1125 66.8981C49.0852 66.8014 49.0337 66.7134 48.9629 66.6422C45.6751 67.6884 42.544 69.1745 39.6546 71.06L38.9222 78.9468C38.9013 79.159 38.9615 79.3713 39.0909 79.5408C39.2202 79.7103 39.409 79.8245 39.6192 79.8603Z" fill="#A49EA5"/>
</g>
<g id="Group_3" filter="url(#filter1_f_42_125)">
<path id="Vector_21" d="M85.6328 79.8603L82.7505 80.3722C82.6037 80.3991 82.4668 80.4646 82.3537 80.5621C82.2407 80.6595 82.1558 80.7853 82.1076 80.9266C82.0595 81.0678 82.0499 81.2194 82.0798 81.3656C82.1098 81.5117 82.1782 81.6473 82.278 81.7582L85.05 84.7901C85.1932 84.9528 85.2688 85.164 85.2615 85.3806C85.2542 85.5973 85.1645 85.8029 85.0106 85.9556L67.2722 104.064C66.8312 104.501 66.0673 104.21 66.0673 103.592V90.4798C66.0673 90.338 66.1028 90.2278 66.1382 90.0821L76.1394 66.8981C76.1666 66.8014 76.2181 66.7132 76.2891 66.6422C79.5768 67.6884 82.7079 69.1745 85.5973 71.06L86.3258 78.9468C86.3468 79.1585 86.2871 79.3702 86.1586 79.5396C86.0301 79.7091 85.8422 79.8236 85.6328 79.8603Z" fill="url(#paint19_linear_42_125)"/>
</g>
<path id="Vector_22" d="M64.9845 85.9123C63.9529 87.9401 63.9529 89.6135 63.9529 91.0507V102.828C63.9529 103.497 64.7719 103.852 65.2405 103.34L84.2113 83.8097C84.5657 83.4553 84.5657 82.904 84.2507 82.5497L81.2858 79.2815C81.1781 79.1619 81.1043 79.0157 81.0719 78.8581C81.0395 78.7004 81.0496 78.537 81.1014 78.3846C81.1531 78.2322 81.2445 78.0963 81.3662 77.991C81.4879 77.8857 81.6355 77.8147 81.7937 77.7853L84.8768 77.234C85.1016 77.1935 85.3027 77.0696 85.44 76.8871C85.5773 76.7045 85.6405 76.4769 85.617 76.2497L84.8807 68.1424C84.8674 67.9944 84.8204 67.8515 84.7433 67.7245C84.6661 67.5976 84.561 67.49 84.4358 67.41C81.4554 65.5188 78.2452 64.0169 74.8834 62.9409C74.8155 63.0375 74.7624 63.1436 74.7259 63.2559L64.9845 85.9084V85.9123Z" fill="url(#paint20_linear_42_125)"/>
<path id="Vector_23" d="M64.9845 85.9123C63.9529 87.9401 63.9529 89.6135 63.9529 91.0507V102.828C63.9529 103.497 64.7719 103.852 65.2405 103.34L84.2113 83.8097C84.5657 83.4553 84.5657 82.904 84.2507 82.5497L81.2858 79.2815C81.1781 79.1619 81.1043 79.0157 81.0719 78.8581C81.0395 78.7004 81.0496 78.537 81.1014 78.3846C81.1531 78.2322 81.2445 78.0963 81.3662 77.991C81.4879 77.8857 81.6355 77.8147 81.7937 77.7853L84.8768 77.234C85.1016 77.1935 85.3027 77.0696 85.44 76.8871C85.5773 76.7045 85.6405 76.4769 85.617 76.2497L84.8807 68.1424C84.8674 67.9944 84.8204 67.8515 84.7433 67.7245C84.6661 67.5976 84.561 67.49 84.4358 67.41C81.4554 65.5188 78.2452 64.0169 74.8834 62.9409C74.8155 63.0375 74.7624 63.1436 74.7259 63.2559L64.9845 85.9084V85.9123Z" fill="url(#paint21_linear_42_125)"/>
<path id="Vector_24" d="M64.9845 85.9123C63.9529 87.9401 63.9529 89.6135 63.9529 91.0507V102.828C63.9529 103.497 64.7719 103.852 65.2405 103.34L84.2113 83.8097C84.5657 83.4553 84.5657 82.904 84.2507 82.5497L81.2858 79.2815C81.1781 79.1619 81.1043 79.0157 81.0719 78.8581C81.0395 78.7004 81.0496 78.537 81.1014 78.3846C81.1531 78.2322 81.2445 78.0963 81.3662 77.991C81.4879 77.8857 81.6355 77.8147 81.7937 77.7853L84.8768 77.234C85.1016 77.1935 85.3027 77.0696 85.44 76.8871C85.5773 76.7045 85.6405 76.4769 85.617 76.2497L84.8807 68.1424C84.8674 67.9944 84.8204 67.8515 84.7433 67.7245C84.6661 67.5976 84.561 67.49 84.4358 67.41C81.4554 65.5188 78.2452 64.0169 74.8834 62.9409C74.8155 63.0375 74.7624 63.1436 74.7259 63.2559L64.9845 85.9084V85.9123Z" fill="url(#paint22_linear_42_125)"/>
<path id="Vector_25" d="M64.9845 85.9123C63.9529 87.9401 63.9529 89.6135 63.9529 91.0507V102.828C63.9529 103.497 64.7719 103.852 65.2405 103.34L84.2113 83.8097C84.5657 83.4553 84.5657 82.904 84.2507 82.5497L81.2858 79.2815C81.1781 79.1619 81.1043 79.0157 81.0719 78.8581C81.0395 78.7004 81.0496 78.537 81.1014 78.3846C81.1531 78.2322 81.2445 78.0963 81.3662 77.991C81.4879 77.8857 81.6355 77.8147 81.7937 77.7853L84.8768 77.234C85.1016 77.1935 85.3027 77.0696 85.44 76.8871C85.5773 76.7045 85.6405 76.4769 85.617 76.2497L84.8807 68.1424C84.8674 67.9944 84.8204 67.8515 84.7433 67.7245C84.6661 67.5976 84.561 67.49 84.4358 67.41C81.4554 65.5188 78.2452 64.0169 74.8834 62.9409C74.8155 63.0375 74.7624 63.1436 74.7259 63.2559L64.9845 85.9084V85.9123Z" fill="url(#paint23_radial_42_125)"/>
<path id="Vector_26" d="M64.9845 85.9123C63.9529 87.9401 63.9529 89.6135 63.9529 91.0507V102.828C63.9529 103.497 64.7719 103.852 65.2405 103.34L84.2113 83.8097C84.5657 83.4553 84.5657 82.904 84.2507 82.5497L81.2858 79.2815C81.1781 79.1619 81.1043 79.0157 81.0719 78.8581C81.0395 78.7004 81.0496 78.537 81.1014 78.3846C81.1531 78.2322 81.2445 78.0963 81.3662 77.991C81.4879 77.8857 81.6355 77.8147 81.7937 77.7853L84.8768 77.234C85.1016 77.1935 85.3027 77.0696 85.44 76.8871C85.5773 76.7045 85.6405 76.4769 85.617 76.2497L84.8807 68.1424C84.8674 67.9944 84.8204 67.8515 84.7433 67.7245C84.6661 67.5976 84.561 67.49 84.4358 67.41C81.4554 65.5188 78.2452 64.0169 74.8834 62.9409C74.8155 63.0375 74.7624 63.1436 74.7259 63.2559L64.9845 85.9084V85.9123Z" fill="url(#paint24_radial_42_125)"/>
<path id="Vector_27" d="M64.9845 85.9123C63.9529 87.9401 63.9529 89.6135 63.9529 91.0507V102.828C63.9529 103.497 64.7719 103.852 65.2405 103.34L84.2113 83.8097C84.5657 83.4553 84.5657 82.904 84.2507 82.5497L81.2858 79.2815C81.1781 79.1619 81.1043 79.0157 81.0719 78.8581C81.0395 78.7004 81.0496 78.537 81.1014 78.3846C81.1531 78.2322 81.2445 78.0963 81.3662 77.991C81.4879 77.8857 81.6355 77.8147 81.7937 77.7853L84.8768 77.234C85.1016 77.1935 85.3027 77.0696 85.44 76.8871C85.5773 76.7045 85.6405 76.4769 85.617 76.2497L84.8807 68.1424C84.8674 67.9944 84.8204 67.8515 84.7433 67.7245C84.6661 67.5976 84.561 67.49 84.4358 67.41C81.4554 65.5188 78.2452 64.0169 74.8834 62.9409C74.8155 63.0375 74.7624 63.1436 74.7259 63.2559L64.9845 85.9084V85.9123Z" fill="url(#paint25_radial_42_125)"/>
<path id="Vector_28" d="M59.9485 85.9123C60.9841 87.9401 60.9841 89.6135 60.9841 91.0507V102.828C60.9841 103.497 60.1611 103.852 59.6926 103.34L40.7217 83.8097C40.5562 83.644 40.4601 83.4215 40.4528 83.1875C40.4455 82.9534 40.5275 82.7254 40.6823 82.5497L43.6512 79.2815C44.1197 78.7697 43.848 77.9034 43.1432 77.7853L40.0602 77.234C39.8354 77.1935 39.6342 77.0696 39.4969 76.8871C39.3597 76.7045 39.2964 76.4769 39.3199 76.2497L40.0562 68.1424C40.0695 67.9944 40.1166 67.8515 40.1937 67.7245C40.2708 67.5976 40.376 67.49 40.5012 67.41C43.4815 65.5187 46.6918 64.0168 50.0535 62.9409C50.1215 63.0375 50.1746 63.1436 50.211 63.2559L59.9485 85.9084V85.9123Z" fill="url(#paint26_radial_42_125)"/>
<path id="Vector_29" d="M59.9485 85.9123C60.9841 87.9401 60.9841 89.6135 60.9841 91.0507V102.828C60.9841 103.497 60.1611 103.852 59.6926 103.34L40.7217 83.8097C40.5562 83.644 40.4601 83.4215 40.4528 83.1875C40.4455 82.9534 40.5275 82.7254 40.6823 82.5497L43.6512 79.2815C44.1197 78.7697 43.848 77.9034 43.1432 77.7853L40.0602 77.234C39.8354 77.1935 39.6342 77.0696 39.4969 76.8871C39.3597 76.7045 39.2964 76.4769 39.3199 76.2497L40.0562 68.1424C40.0695 67.9944 40.1166 67.8515 40.1937 67.7245C40.2708 67.5976 40.376 67.49 40.5012 67.41C43.4815 65.5187 46.6918 64.0168 50.0535 62.9409C50.1215 63.0375 50.1746 63.1436 50.211 63.2559L59.9485 85.9084V85.9123Z" fill="url(#paint27_radial_42_125)"/>
<path id="Vector_30" d="M59.9485 85.9123C60.9841 87.9401 60.9841 89.6135 60.9841 91.0507V102.828C60.9841 103.497 60.1611 103.852 59.6926 103.34L40.7217 83.8097C40.5562 83.644 40.4601 83.4215 40.4528 83.1875C40.4455 82.9534 40.5275 82.7254 40.6823 82.5497L43.6512 79.2815C44.1197 78.7697 43.848 77.9034 43.1432 77.7853L40.0602 77.234C39.8354 77.1935 39.6342 77.0696 39.4969 76.8871C39.3597 76.7045 39.2964 76.4769 39.3199 76.2497L40.0562 68.1424C40.0695 67.9944 40.1166 67.8515 40.1937 67.7245C40.2708 67.5976 40.376 67.49 40.5012 67.41C43.4815 65.5187 46.6918 64.0168 50.0535 62.9409C50.1215 63.0375 50.1746 63.1436 50.211 63.2559L59.9485 85.9084V85.9123Z" fill="url(#paint28_linear_42_125)"/>
<path id="Vector_31" d="M59.9485 85.9123C60.9841 87.9401 60.9841 89.6135 60.9841 91.0507V102.828C60.9841 103.497 60.1611 103.852 59.6926 103.34L40.7217 83.8097C40.5562 83.644 40.4601 83.4215 40.4528 83.1875C40.4455 82.9534 40.5275 82.7254 40.6823 82.5497L43.6512 79.2815C44.1197 78.7697 43.848 77.9034 43.1432 77.7853L40.0602 77.234C39.8354 77.1935 39.6342 77.0696 39.4969 76.8871C39.3597 76.7045 39.2964 76.4769 39.3199 76.2497L40.0562 68.1424C40.0695 67.9944 40.1166 67.8515 40.1937 67.7245C40.2708 67.5976 40.376 67.49 40.5012 67.41C43.4815 65.5187 46.6918 64.0168 50.0535 62.9409C50.1215 63.0375 50.1746 63.1436 50.211 63.2559L59.9485 85.9084V85.9123Z" fill="url(#paint29_radial_42_125)"/>
<path id="Vector_32" d="M59.9485 85.9123C60.9841 87.9401 60.9841 89.6135 60.9841 91.0507V102.828C60.9841 103.497 60.1611 103.852 59.6926 103.34L40.7217 83.8097C40.5562 83.644 40.4601 83.4215 40.4528 83.1875C40.4455 82.9534 40.5275 82.7254 40.6823 82.5497L43.6512 79.2815C44.1197 78.7697 43.848 77.9034 43.1432 77.7853L40.0602 77.234C39.8354 77.1935 39.6342 77.0696 39.4969 76.8871C39.3597 76.7045 39.2964 76.4769 39.3199 76.2497L40.0562 68.1424C40.0695 67.9944 40.1166 67.8515 40.1937 67.7245C40.2708 67.5976 40.376 67.49 40.5012 67.41C43.4815 65.5187 46.6918 64.0168 50.0535 62.9409C50.1215 63.0375 50.1746 63.1436 50.211 63.2559L59.9485 85.9084V85.9123Z" fill="url(#paint30_radial_42_125)"/>
<path id="Vector_33" d="M59.9485 85.9123C60.9841 87.9401 60.9841 89.6135 60.9841 91.0507V102.828C60.9841 103.497 60.1611 103.852 59.6926 103.34L40.7217 83.8097C40.5562 83.644 40.4601 83.4215 40.4528 83.1875C40.4455 82.9534 40.5275 82.7254 40.6823 82.5497L43.6512 79.2815C44.1197 78.7697 43.848 77.9034 43.1432 77.7853L40.0602 77.234C39.8354 77.1935 39.6342 77.0696 39.4969 76.8871C39.3597 76.7045 39.2964 76.4769 39.3199 76.2497L40.0562 68.1424C40.0695 67.9944 40.1166 67.8515 40.1937 67.7245C40.2708 67.5976 40.376 67.49 40.5012 67.41C43.4815 65.5187 46.6918 64.0168 50.0535 62.9409C50.1215 63.0375 50.1746 63.1436 50.211 63.2559L59.9485 85.9084V85.9123Z" fill="url(#paint31_radial_42_125)"/>
<path id="Vector_34" d="M62.37 74.2101C61.2842 74.2101 60.2089 73.9962 59.2057 73.5806C58.2025 73.1651 57.291 72.556 56.5231 71.7882C55.7553 71.0204 55.1463 70.1088 54.7307 69.1056C54.3152 68.1024 54.1013 67.0272 54.1013 65.9413V60.5076H70.6388V65.9413C70.6388 68.1343 69.7676 70.2375 68.2169 71.7882C66.6662 73.3389 64.563 74.2101 62.37 74.2101Z" fill="url(#paint32_radial_42_125)"/>
<path id="Vector_35" fill-rule="evenodd" clip-rule="evenodd" d="M62.1731 60.039C58.7896 60.039 55.5447 61.3831 53.1522 63.7756C50.7597 66.1681 49.4156 69.413 49.4156 72.7965V81.2621H45.5569V72.7965C45.5569 68.3896 47.3075 64.1632 50.4237 61.047C53.5398 57.9309 57.7662 56.1802 62.1731 56.1802C66.58 56.1802 70.8064 57.9309 73.9226 61.047C77.0387 64.1632 78.7894 68.3896 78.7894 72.7965V100.831H74.9306V72.7965C74.9306 69.413 73.5865 66.1681 71.1941 63.7756C68.8016 61.3831 65.5566 60.039 62.1731 60.039Z" fill="#5A4B7E"/>
<path id="Vector_36" fill-rule="evenodd" clip-rule="evenodd" d="M62.1731 60.039C58.7896 60.039 55.5447 61.3831 53.1522 63.7756C50.7597 66.1681 49.4156 69.413 49.4156 72.7965V81.2621H45.5569V72.7965C45.5569 68.3896 47.3075 64.1632 50.4237 61.047C53.5398 57.9309 57.7662 56.1802 62.1731 56.1802C66.58 56.1802 70.8064 57.9309 73.9226 61.047C77.0387 64.1632 78.7894 68.3896 78.7894 72.7965V100.831H74.9306V72.7965C74.9306 69.413 73.5865 66.1681 71.1941 63.7756C68.8016 61.3831 65.5566 60.039 62.1731 60.039Z" fill="url(#paint33_linear_42_125)"/>
<path id="Vector_37" fill-rule="evenodd" clip-rule="evenodd" d="M62.1731 60.039C58.7896 60.039 55.5447 61.3831 53.1522 63.7756C50.7597 66.1681 49.4156 69.413 49.4156 72.7965V81.2621H45.5569V72.7965C45.5569 68.3896 47.3075 64.1632 50.4237 61.047C53.5398 57.9309 57.7662 56.1802 62.1731 56.1802C66.58 56.1802 70.8064 57.9309 73.9226 61.047C77.0387 64.1632 78.7894 68.3896 78.7894 72.7965V100.831H74.9306V72.7965C74.9306 69.413 73.5865 66.1681 71.1941 63.7756C68.8016 61.3831 65.5566 60.039 62.1731 60.039Z" fill="url(#paint34_radial_42_125)"/>
<path id="Vector_38" fill-rule="evenodd" clip-rule="evenodd" d="M62.1731 60.039C58.7896 60.039 55.5447 61.3831 53.1522 63.7756C50.7597 66.1681 49.4156 69.413 49.4156 72.7965V81.2621H45.5569V72.7965C45.5569 68.3896 47.3075 64.1632 50.4237 61.047C53.5398 57.9309 57.7662 56.1802 62.1731 56.1802C66.58 56.1802 70.8064 57.9309 73.9226 61.047C77.0387 64.1632 78.7894 68.3896 78.7894 72.7965V100.831H74.9306V72.7965C74.9306 69.413 73.5865 66.1681 71.1941 63.7756C68.8016 61.3831 65.5566 60.039 62.1731 60.039Z" fill="url(#paint35_radial_42_125)"/>
<path id="Vector_39" fill-rule="evenodd" clip-rule="evenodd" d="M62.1731 60.039C58.7896 60.039 55.5447 61.3831 53.1522 63.7756C50.7597 66.1681 49.4156 69.413 49.4156 72.7965V81.2621H45.5569V72.7965C45.5569 68.3896 47.3075 64.1632 50.4237 61.047C53.5398 57.9309 57.7662 56.1802 62.1731 56.1802C66.58 56.1802 70.8064 57.9309 73.9226 61.047C77.0387 64.1632 78.7894 68.3896 78.7894 72.7965V100.831H74.9306V72.7965C74.9306 69.413 73.5865 66.1681 71.1941 63.7756C68.8016 61.3831 65.5566 60.039 62.1731 60.039Z" fill="url(#paint36_radial_42_125)"/>
<g id="Group_4" filter="url(#filter2_f_42_125)">
<path id="Vector_40" d="M73.6313 106.651C74.2108 106.669 74.7879 106.57 75.3284 106.36C75.869 106.15 76.3619 105.834 76.778 105.43C77.1941 105.027 77.5249 104.543 77.7508 104.009C77.9767 103.476 78.0931 102.902 78.0931 102.322C78.0931 101.742 77.9767 101.168 77.7508 100.634C77.5249 100.1 77.1941 99.6171 76.778 99.2134C76.3619 98.8096 75.869 98.4935 75.3284 98.2838C74.7879 98.0741 74.2108 97.9751 73.6313 97.9926C72.5057 98.0265 71.4376 98.4975 70.6534 99.3057C69.8692 100.114 69.4306 101.196 69.4306 102.322C69.4306 103.448 69.8692 104.53 70.6534 105.338C71.4376 106.146 72.5057 106.617 73.6313 106.651Z" fill="#AFA3C5"/>
</g>
<path id="Vector_41" d="M76.8994 105.749C78.2152 105.749 79.4771 105.227 80.4075 104.296C81.338 103.366 81.8607 102.104 81.8607 100.788C81.8607 99.4723 81.338 98.2104 80.4075 97.28C79.4771 96.3496 78.2152 95.8269 76.8994 95.8269C75.5836 95.8269 74.3217 96.3496 73.3913 97.28C72.4609 98.2104 71.9382 99.4723 71.9382 100.788C71.9382 102.104 72.4609 103.366 73.3913 104.296C74.3217 105.227 75.5836 105.749 76.8994 105.749Z" fill="url(#paint37_radial_42_125)"/>
<g id="Group_5" filter="url(#filter3_i_42_125)">
<path id="Vector_42" d="M76.8994 103.584C77.6409 103.584 78.3519 103.289 78.8762 102.765C79.4005 102.241 79.695 101.53 79.695 100.788C79.695 100.047 79.4005 99.3357 78.8762 98.8114C78.3519 98.2871 77.6409 97.9926 76.8994 97.9926C76.158 97.9926 75.4469 98.2871 74.9226 98.8114C74.3983 99.3357 74.1038 100.047 74.1038 100.788C74.1038 101.53 74.3983 102.241 74.9226 102.765C75.4469 103.289 76.158 103.584 76.8994 103.584Z" fill="url(#paint38_radial_42_125)"/>
</g>
<g id="Group_6" filter="url(#filter4_i_42_125)">
<path id="Vector_43" fill-rule="evenodd" clip-rule="evenodd" d="M47.4863 82.6402C43.785 82.6402 40.7532 85.6406 40.7532 89.3734V102.363H43.3913C43.9035 102.363 44.3948 102.567 44.757 102.929C45.1192 103.291 45.3226 103.782 45.3226 104.295C45.3226 104.807 45.1192 105.298 44.757 105.66C44.3948 106.022 43.9035 106.226 43.3913 106.226H39.4538C39.1174 106.227 38.7841 106.161 38.4731 106.033C38.1622 105.905 37.8796 105.716 37.6417 105.479C37.4039 105.241 37.2154 104.958 37.0871 104.647C36.9589 104.336 36.8934 104.003 36.8944 103.666V89.3734C36.8944 86.5642 38.0103 83.8701 39.9967 81.8838C41.9831 79.8974 44.6772 78.7815 47.4863 78.7815C50.2954 78.7815 52.9895 79.8974 54.9759 81.8838C56.9622 83.8701 58.0782 86.5642 58.0782 89.3734V103.666C58.0782 105.084 56.9363 106.226 55.5188 106.226H51.8569C51.3447 106.226 50.8535 106.022 50.4913 105.66C50.1291 105.298 49.9256 104.807 49.9256 104.295C49.9256 103.782 50.1291 103.291 50.4913 102.929C50.8535 102.567 51.3447 102.363 51.8569 102.363H54.2194V89.3694C54.2184 87.5844 53.5085 85.8728 52.2459 84.6109C50.9833 83.3491 49.2714 82.6402 47.4863 82.6402Z" fill="url(#paint39_linear_42_125)"/>
</g>
<g id="Group_7" filter="url(#filter5_f_42_125)">
<path id="Vector_44" d="M43.4936 104.029H39.5561C39.2018 104.029 38.9261 103.753 38.9261 103.399V89.1056C38.9261 86.8082 39.8388 84.6048 41.4633 82.9803C43.0879 81.3558 45.2912 80.4431 47.5887 80.4431C49.8861 80.4431 52.0894 81.3558 53.714 82.9803C55.3385 84.6048 56.2511 86.8082 56.2511 89.1056V103.399C56.2511 103.753 55.9755 104.029 55.6212 104.029H51.9593" stroke="#6A5D85" stroke-width="0.3" stroke-miterlimit="10" stroke-linecap="round" stroke-linejoin="round"/>
</g>
<path id="Vector_45" fill-rule="evenodd" clip-rule="evenodd" d="M36.8944 103.623V93.8975H40.7532V102.324H41.7375V106.183H39.4538C39.1175 106.183 38.7845 106.117 38.4737 105.989C38.163 105.86 37.8806 105.672 37.6429 105.434C37.4051 105.196 37.2166 104.914 37.0882 104.603C36.9597 104.292 36.8939 103.959 36.8944 103.623Z" fill="url(#paint40_linear_42_125)"/>
<path id="Vector_46" fill-rule="evenodd" clip-rule="evenodd" d="M36.8944 103.623V93.8975H40.7532V102.324H41.7375V106.183H39.4538C39.1175 106.183 38.7845 106.117 38.4737 105.989C38.163 105.86 37.8806 105.672 37.6429 105.434C37.4051 105.196 37.2166 104.914 37.0882 104.603C36.9597 104.292 36.8939 103.959 36.8944 103.623Z" fill="url(#paint41_radial_42_125)"/>
<path id="Vector_47" fill-rule="evenodd" clip-rule="evenodd" d="M58.0782 93.9369V103.663C58.0797 103.999 58.0146 104.333 57.8866 104.644C57.7586 104.956 57.5702 105.239 57.3323 105.477C57.0943 105.715 56.8116 105.904 56.5004 106.033C56.1891 106.161 55.8555 106.227 55.5188 106.226H53.235V102.363H54.2194V93.9369H58.0782Z" fill="url(#paint42_linear_42_125)"/>
<path id="Vector_48" fill-rule="evenodd" clip-rule="evenodd" d="M58.0782 93.9369V103.663C58.0797 103.999 58.0146 104.333 57.8866 104.644C57.7586 104.956 57.5702 105.239 57.3323 105.477C57.0943 105.715 56.8116 105.904 56.5004 106.033C56.1891 106.161 55.8555 106.227 55.5188 106.226H53.235V102.363H54.2194V93.9369H58.0782Z" fill="url(#paint43_linear_42_125)"/>
<path id="Vector_49" d="M81.5102 48.5336C82.8293 48.4942 84.0696 48.0454 85.0737 47.3209V50.9827C85.0737 54.5029 82.9789 57.6371 79.7935 58.9365C80.4628 57.5072 80.9235 55.9519 81.1558 54.2902L81.5102 48.5336Z" fill="url(#paint44_radial_42_125)"/>
<path id="Vector_50" d="M81.5102 48.5336C82.8293 48.4942 84.0696 48.0454 85.0737 47.3209V50.9827C85.0737 54.5029 82.9789 57.6371 79.7935 58.9365C80.4628 57.5072 80.9235 55.9519 81.1558 54.2902L81.5102 48.5336Z" fill="url(#paint45_radial_42_125)"/>
<path id="Vector_51" d="M43.2298 48.5336C41.9479 48.4922 40.7074 48.07 39.6664 47.3209V50.9827C39.6664 54.5029 41.7611 57.6371 44.9426 58.9365C44.2581 57.4651 43.8001 55.8986 43.5842 54.2902L43.2298 48.5336Z" fill="url(#paint46_radial_42_125)"/>
<path id="Vector_52" d="M43.2298 48.5336C41.9479 48.4922 40.7074 48.07 39.6664 47.3209V50.9827C39.6664 54.5029 41.7611 57.6371 44.9426 58.9365C44.2581 57.4651 43.8001 55.8986 43.5842 54.2902L43.2298 48.5336Z" fill="url(#paint47_radial_42_125)"/>
<g id="Group_8" filter="url(#filter6_ii_42_125)">
<path id="Vector_53" d="M43.3716 54.4989C43.8592 58.2109 45.6806 61.6188 48.4961 64.0865C51.3116 66.5542 54.9288 67.9133 58.6727 67.9101H66.0988C69.8421 67.9134 73.4588 66.5549 76.2742 64.088C79.0896 61.621 80.9115 58.2142 81.4 54.5029C81.8646 47.0846 82.3331 39.6979 82.6757 32.2836C82.6594 30.8288 82.0883 29.4352 81.0792 28.3873C80.0701 27.3394 78.699 26.7162 77.2459 26.6451H71.7334C67.9731 26.6451 64.5671 24.4283 63.0236 20.9633C62.8303 20.4786 62.4964 20.0629 62.0649 19.7695C61.6333 19.4762 61.1239 19.3188 60.6021 19.3174H55.5896C48.321 19.3174 42.4344 25.2709 42.4344 32.6222C42.4344 39.9459 42.8912 47.1555 43.3716 54.4989Z" fill="url(#paint48_radial_42_125)"/>
</g>
<path id="Vector_54" d="M43.3716 54.4989C43.8592 58.2109 45.6806 61.6188 48.4961 64.0865C51.3116 66.5542 54.9288 67.9133 58.6727 67.9101H66.0988C69.8421 67.9134 73.4588 66.5549 76.2742 64.088C79.0896 61.621 80.9115 58.2142 81.4 54.5029C81.8646 47.0846 82.3331 39.6979 82.6757 32.2836C82.6594 30.8288 82.0883 29.4352 81.0792 28.3873C80.0701 27.3394 78.699 26.7162 77.2459 26.6451H71.7334C67.9731 26.6451 64.5671 24.4283 63.0236 20.9633C62.8303 20.4786 62.4964 20.0629 62.0649 19.7695C61.6333 19.4762 61.1239 19.3188 60.6021 19.3174H55.5896C48.321 19.3174 42.4344 25.2709 42.4344 32.6222C42.4344 39.9459 42.8912 47.1555 43.3716 54.4989Z" fill="url(#paint49_radial_42_125)"/>
<path id="Vector_55" d="M43.3716 54.4989C43.8592 58.2109 45.6806 61.6188 48.4961 64.0865C51.3116 66.5542 54.9288 67.9133 58.6727 67.9101H66.0988C69.8421 67.9134 73.4588 66.5549 76.2742 64.088C79.0896 61.621 80.9115 58.2142 81.4 54.5029C81.8646 47.0846 82.3331 39.6979 82.6757 32.2836C82.6594 30.8288 82.0883 29.4352 81.0792 28.3873C80.0701 27.3394 78.699 26.7162 77.2459 26.6451H71.7334C67.9731 26.6451 64.5671 24.4283 63.0236 20.9633C62.8303 20.4786 62.4964 20.0629 62.0649 19.7695C61.6333 19.4762 61.1239 19.3188 60.6021 19.3174H55.5896C48.321 19.3174 42.4344 25.2709 42.4344 32.6222C42.4344 39.9459 42.8912 47.1555 43.3716 54.4989Z" fill="url(#paint50_radial_42_125)"/>
<path id="Vector_56" d="M43.3716 54.4989C43.8592 58.2109 45.6806 61.6188 48.4961 64.0865C51.3116 66.5542 54.9288 67.9133 58.6727 67.9101H66.0988C69.8421 67.9134 73.4588 66.5549 76.2742 64.088C79.0896 61.621 80.9115 58.2142 81.4 54.5029C81.8646 47.0846 82.3331 39.6979 82.6757 32.2836C82.6594 30.8288 82.0883 29.4352 81.0792 28.3873C80.0701 27.3394 78.699 26.7162 77.2459 26.6451H71.7334C67.9731 26.6451 64.5671 24.4283 63.0236 20.9633C62.8303 20.4786 62.4964 20.0629 62.0649 19.7695C61.6333 19.4762 61.1239 19.3188 60.6021 19.3174H55.5896C48.321 19.3174 42.4344 25.2709 42.4344 32.6222C42.4344 39.9459 42.8912 47.1555 43.3716 54.4989Z" fill="url(#paint51_radial_42_125)"/>
<path id="Vector_57" d="M43.3716 54.4989C43.8592 58.2109 45.6806 61.6188 48.4961 64.0865C51.3116 66.5542 54.9288 67.9133 58.6727 67.9101H66.0988C69.8421 67.9134 73.4588 66.5549 76.2742 64.088C79.0896 61.621 80.9115 58.2142 81.4 54.5029C81.8646 47.0846 82.3331 39.6979 82.6757 32.2836C82.6594 30.8288 82.0883 29.4352 81.0792 28.3873C80.0701 27.3394 78.699 26.7162 77.2459 26.6451H71.7334C67.9731 26.6451 64.5671 24.4283 63.0236 20.9633C62.8303 20.4786 62.4964 20.0629 62.0649 19.7695C61.6333 19.4762 61.1239 19.3188 60.6021 19.3174H55.5896C48.321 19.3174 42.4344 25.2709 42.4344 32.6222C42.4344 39.9459 42.8912 47.1555 43.3716 54.4989Z" fill="url(#paint52_radial_42_125)"/>
<g id="Group_9" filter="url(#filter7_f_42_125)">
<path id="Vector_58" d="M60.4564 41.5682L57.9561 48.8093C57.5308 50.2976 58.5546 51.786 60.0036 51.786H63.1024C64.5553 51.786 65.5791 50.274 65.1499 48.8093L63.063 41.5682C62.6102 39.9656 60.925 39.9656 60.4564 41.5682Z" fill="#EE9020"/>
</g>
<g id="Group_10" filter="url(#filter8_f_42_125)">
<path id="Vector_59" d="M60.8659 40.8004L58.7712 48.0375C58.3459 49.5298 59.3697 51.0182 60.8187 51.0182H63.9175C65.3704 51.0182 66.3981 49.5062 65.965 48.0375L63.8781 40.8004C63.4253 39.1978 61.3345 39.1978 60.8659 40.8004Z" fill="url(#paint53_linear_42_125)"/>
<path id="Vector_60" d="M60.8659 40.8004L58.7712 48.0375C58.3459 49.5298 59.3697 51.0182 60.8187 51.0182H63.9175C65.3704 51.0182 66.3981 49.5062 65.965 48.0375L63.8781 40.8004C63.4253 39.1978 61.3345 39.1978 60.8659 40.8004Z" fill="url(#paint54_linear_42_125)"/>
<path id="Vector_61" d="M60.8659 40.8004L58.7712 48.0375C58.3459 49.5298 59.3697 51.0182 60.8187 51.0182H63.9175C65.3704 51.0182 66.3981 49.5062 65.965 48.0375L63.8781 40.8004C63.4253 39.1978 61.3345 39.1978 60.8659 40.8004Z" fill="url(#paint55_linear_42_125)"/>
<path id="Vector_62" d="M60.8659 40.8004L58.7712 48.0375C58.3459 49.5298 59.3697 51.0182 60.8187 51.0182H63.9175C65.3704 51.0182 66.3981 49.5062 65.965 48.0375L63.8781 40.8004C63.4253 39.1978 61.3345 39.1978 60.8659 40.8004Z" fill="url(#paint56_linear_42_125)"/>
</g>
<g id="Group_11" filter="url(#filter9_f_42_125)">
<path id="Vector_63" d="M57.0544 53.4634C58.5861 54.2627 60.417 54.7234 62.37 54.7234C64.3388 54.7234 66.15 54.2627 67.6857 53.4634H67.6896C67.8627 53.3735 68.0603 53.3422 68.2526 53.3742C68.445 53.4061 68.6219 53.4996 68.7566 53.6405C68.8947 53.7801 68.9797 53.9635 68.9969 54.159C69.0142 54.3545 68.9626 54.55 68.8511 54.7115M57.0505 53.4634L68.6031 54.5501M57.0505 53.4634C56.8763 53.3729 56.6772 53.342 56.4838 53.3754C56.2903 53.4088 56.1132 53.5047 55.9795 53.6484C55.8426 53.7872 55.7587 53.9695 55.7421 54.1636C55.7256 54.3578 55.7775 54.5516 55.8889 54.7115M57.0505 53.4634L56.137 54.5501M68.8511 54.7115L68.6031 54.5501M68.8511 54.7115L68.6031 54.5501M68.8511 54.7115C68.1415 55.7799 67.178 56.6556 66.047 57.2603C64.9159 57.865 63.6526 58.1798 62.37 58.1765C61.0875 58.1798 59.8241 57.865 58.6931 57.2603C57.562 56.6556 56.5985 55.7799 55.8889 54.7115M68.607 54.5501C67.9242 55.578 66.9969 56.4205 65.9084 57.0018C64.8199 57.5832 63.6041 57.8854 62.37 57.8812C61.1366 57.8851 59.9214 57.5828 58.8336 57.0014C57.7457 56.42 56.8192 55.5777 56.137 54.5501M55.8889 54.7155L56.137 54.5501M55.8889 54.7155V54.7115L56.137 54.5501" stroke="url(#paint57_radial_42_125)" stroke-width="0.15"/>
</g>
<path id="Vector_64" d="M62.37 55.0187C60.3698 55.0187 58.4916 54.5462 56.9126 53.7272C56.3771 53.4516 55.7944 54.0579 56.137 54.5501C57.456 56.5464 59.7516 57.8813 62.37 57.8813C64.9885 57.8813 67.284 56.5464 68.6031 54.5501C68.9456 54.0383 68.3668 53.4516 67.8235 53.7233C66.1368 54.5892 64.2659 55.0349 62.37 55.0226V55.0187Z" fill="url(#paint58_radial_42_125)"/>
<g id="Group_12" filter="url(#filter10_ii_42_125)">
<path id="Vector_65" d="M81.4866 17.4589C83.5105 18.1558 85.3296 19.5694 86.4754 21.5972C87.3517 23.1254 87.7776 24.8704 87.7037 26.6305C87.6299 28.3906 87.0593 30.0939 86.058 31.5433C85.367 32.5595 84.9966 33.7597 84.9949 34.9886V39.6664C84.2022 39.1361 83.3078 38.7767 82.3686 38.6111L82.6757 32.2835C82.6594 30.8288 82.0884 29.4352 81.0792 28.3873C80.0701 27.3394 78.699 26.7162 77.2459 26.645H71.7334C67.9731 26.645 64.5671 24.4282 63.0236 20.9632C62.8303 20.4786 62.4964 20.0628 62.0649 19.7695C61.6333 19.4762 61.1239 19.3187 60.6021 19.3174H55.5896C48.321 19.3174 42.4345 25.2709 42.4345 32.6222L42.5526 38.6741C41.5416 38.8038 40.5727 39.159 39.7176 39.7136V34.9886C39.7158 33.7597 39.3455 32.5595 38.6545 31.5433C37.7009 30.1386 37.1452 28.5022 37.046 26.8073C36.9469 25.1125 37.3081 23.4224 38.0914 21.9161C39.1725 19.8423 41.0006 18.2563 43.2062 17.4785C45.4661 16.6823 47.3879 15.141 48.6557 13.1079C49.8098 11.2477 51.5923 9.86254 53.68 9.20372C55.7676 8.54491 58.0223 8.65603 60.0351 9.51692C60.7764 9.84109 61.5767 10.0084 62.3858 10.0084C63.1948 10.0084 63.9952 9.84109 64.7365 9.51692C65.8429 9.0523 67.0556 8.77667 68.3275 8.77667C71.6507 8.77667 74.5487 10.5722 76.1631 13.2339C77.3719 15.242 79.2737 16.6989 81.4866 17.4589Z" fill="url(#paint59_linear_42_125)"/>
<path id="Vector_66" d="M81.4866 17.4589C83.5105 18.1558 85.3296 19.5694 86.4754 21.5972C87.3517 23.1254 87.7776 24.8704 87.7037 26.6305C87.6299 28.3906 87.0593 30.0939 86.058 31.5433C85.367 32.5595 84.9966 33.7597 84.9949 34.9886V39.6664C84.2022 39.1361 83.3078 38.7767 82.3686 38.6111L82.6757 32.2835C82.6594 30.8288 82.0884 29.4352 81.0792 28.3873C80.0701 27.3394 78.699 26.7162 77.2459 26.645H71.7334C67.9731 26.645 64.5671 24.4282 63.0236 20.9632C62.8303 20.4786 62.4964 20.0628 62.0649 19.7695C61.6333 19.4762 61.1239 19.3187 60.6021 19.3174H55.5896C48.321 19.3174 42.4345 25.2709 42.4345 32.6222L42.5526 38.6741C41.5416 38.8038 40.5727 39.159 39.7176 39.7136V34.9886C39.7158 33.7597 39.3455 32.5595 38.6545 31.5433C37.7009 30.1386 37.1452 28.5022 37.046 26.8073C36.9469 25.1125 37.3081 23.4224 38.0914 21.9161C39.1725 19.8423 41.0006 18.2563 43.2062 17.4785C45.4661 16.6823 47.3879 15.141 48.6557 13.1079C49.8098 11.2477 51.5923 9.86254 53.68 9.20372C55.7676 8.54491 58.0223 8.65603 60.0351 9.51692C60.7764 9.84109 61.5767 10.0084 62.3858 10.0084C63.1948 10.0084 63.9952 9.84109 64.7365 9.51692C65.8429 9.0523 67.0556 8.77667 68.3275 8.77667C71.6507 8.77667 74.5487 10.5722 76.1631 13.2339C77.3719 15.242 79.2737 16.6989 81.4866 17.4589Z" fill="url(#paint60_radial_42_125)"/>
<path id="Vector_67" d="M81.4866 17.4589C83.5105 18.1558 85.3296 19.5694 86.4754 21.5972C87.3517 23.1254 87.7776 24.8704 87.7037 26.6305C87.6299 28.3906 87.0593 30.0939 86.058 31.5433C85.367 32.5595 84.9966 33.7597 84.9949 34.9886V39.6664C84.2022 39.1361 83.3078 38.7767 82.3686 38.6111L82.6757 32.2835C82.6594 30.8288 82.0884 29.4352 81.0792 28.3873C80.0701 27.3394 78.699 26.7162 77.2459 26.645H71.7334C67.9731 26.645 64.5671 24.4282 63.0236 20.9632C62.8303 20.4786 62.4964 20.0628 62.0649 19.7695C61.6333 19.4762 61.1239 19.3187 60.6021 19.3174H55.5896C48.321 19.3174 42.4345 25.2709 42.4345 32.6222L42.5526 38.6741C41.5416 38.8038 40.5727 39.159 39.7176 39.7136V34.9886C39.7158 33.7597 39.3455 32.5595 38.6545 31.5433C37.7009 30.1386 37.1452 28.5022 37.046 26.8073C36.9469 25.1125 37.3081 23.4224 38.0914 21.9161C39.1725 19.8423 41.0006 18.2563 43.2062 17.4785C45.4661 16.6823 47.3879 15.141 48.6557 13.1079C49.8098 11.2477 51.5923 9.86254 53.68 9.20372C55.7676 8.54491 58.0223 8.65603 60.0351 9.51692C60.7764 9.84109 61.5767 10.0084 62.3858 10.0084C63.1948 10.0084 63.9952 9.84109 64.7365 9.51692C65.8429 9.0523 67.0556 8.77667 68.3275 8.77667C71.6507 8.77667 74.5487 10.5722 76.1631 13.2339C77.3719 15.242 79.2737 16.6989 81.4866 17.4589Z" fill="url(#paint61_radial_42_125)"/>
<path id="Vector_68" d="M81.4866 17.4589C83.5105 18.1558 85.3296 19.5694 86.4754 21.5972C87.3517 23.1254 87.7776 24.8704 87.7037 26.6305C87.6299 28.3906 87.0593 30.0939 86.058 31.5433C85.367 32.5595 84.9966 33.7597 84.9949 34.9886V39.6664C84.2022 39.1361 83.3078 38.7767 82.3686 38.6111L82.6757 32.2835C82.6594 30.8288 82.0884 29.4352 81.0792 28.3873C80.0701 27.3394 78.699 26.7162 77.2459 26.645H71.7334C67.9731 26.645 64.5671 24.4282 63.0236 20.9632C62.8303 20.4786 62.4964 20.0628 62.0649 19.7695C61.6333 19.4762 61.1239 19.3187 60.6021 19.3174H55.5896C48.321 19.3174 42.4345 25.2709 42.4345 32.6222L42.5526 38.6741C41.5416 38.8038 40.5727 39.159 39.7176 39.7136V34.9886C39.7158 33.7597 39.3455 32.5595 38.6545 31.5433C37.7009 30.1386 37.1452 28.5022 37.046 26.8073C36.9469 25.1125 37.3081 23.4224 38.0914 21.9161C39.1725 19.8423 41.0006 18.2563 43.2062 17.4785C45.4661 16.6823 47.3879 15.141 48.6557 13.1079C49.8098 11.2477 51.5923 9.86254 53.68 9.20372C55.7676 8.54491 58.0223 8.65603 60.0351 9.51692C60.7764 9.84109 61.5767 10.0084 62.3858 10.0084C63.1948 10.0084 63.9952 9.84109 64.7365 9.51692C65.8429 9.0523 67.0556 8.77667 68.3275 8.77667C71.6507 8.77667 74.5487 10.5722 76.1631 13.2339C77.3719 15.242 79.2737 16.6989 81.4866 17.4589Z" fill="url(#paint62_radial_42_125)"/>
<path id="Vector_69" d="M81.4866 17.4589C83.5105 18.1558 85.3296 19.5694 86.4754 21.5972C87.3517 23.1254 87.7776 24.8704 87.7037 26.6305C87.6299 28.3906 87.0593 30.0939 86.058 31.5433C85.367 32.5595 84.9966 33.7597 84.9949 34.9886V39.6664C84.2022 39.1361 83.3078 38.7767 82.3686 38.6111L82.6757 32.2835C82.6594 30.8288 82.0884 29.4352 81.0792 28.3873C80.0701 27.3394 78.699 26.7162 77.2459 26.645H71.7334C67.9731 26.645 64.5671 24.4282 63.0236 20.9632C62.8303 20.4786 62.4964 20.0628 62.0649 19.7695C61.6333 19.4762 61.1239 19.3187 60.6021 19.3174H55.5896C48.321 19.3174 42.4345 25.2709 42.4345 32.6222L42.5526 38.6741C41.5416 38.8038 40.5727 39.159 39.7176 39.7136V34.9886C39.7158 33.7597 39.3455 32.5595 38.6545 31.5433C37.7009 30.1386 37.1452 28.5022 37.046 26.8073C36.9469 25.1125 37.3081 23.4224 38.0914 21.9161C39.1725 19.8423 41.0006 18.2563 43.2062 17.4785C45.4661 16.6823 47.3879 15.141 48.6557 13.1079C49.8098 11.2477 51.5923 9.86254 53.68 9.20372C55.7676 8.54491 58.0223 8.65603 60.0351 9.51692C60.7764 9.84109 61.5767 10.0084 62.3858 10.0084C63.1948 10.0084 63.9952 9.84109 64.7365 9.51692C65.8429 9.0523 67.0556 8.77667 68.3275 8.77667C71.6507 8.77667 74.5487 10.5722 76.1631 13.2339C77.3719 15.242 79.2737 16.6989 81.4866 17.4589Z" fill="url(#paint63_radial_42_125)"/>
</g>
<g id="Group_13" filter="url(#filter11_i_42_125)">
<path id="Vector_70" d="M77.0687 31.8819C76.2949 31.15 75.3702 30.5963 74.3597 30.2597C73.1627 29.8856 71.6625 29.7832 69.5875 30.0352C69.3003 30.0702 69.0388 30.2178 68.8604 30.4456C68.6821 30.6734 68.6016 30.9628 68.6365 31.2499C68.6715 31.5371 68.8192 31.7986 69.047 31.977C69.2748 32.1553 69.5641 32.2358 69.8513 32.2008C71.7452 31.9725 72.9068 32.0945 73.7061 32.3426C74.4857 32.5907 75.0133 32.9883 75.6355 33.5278C75.8537 33.7178 76.1385 33.8134 76.4273 33.7935C76.716 33.7735 76.985 33.6397 77.175 33.4215C77.3651 33.2032 77.4607 32.9184 77.4407 32.6297C77.4208 32.3409 77.287 32.072 77.0687 31.8819Z" fill="#C05029"/>
</g>
<g id="Group_14" filter="url(#filter12_i_42_125)">
<path id="Vector_71" d="M48.9431 31.4528C51.0086 30.2427 53.4144 29.7447 55.7905 30.0353C55.9327 30.0528 56.07 30.0983 56.1946 30.1689C56.3193 30.2396 56.4288 30.3341 56.5169 30.4471C56.605 30.5601 56.67 30.6893 56.7082 30.8274C56.7464 30.9655 56.757 31.1098 56.7394 31.252C56.7218 31.3941 56.6764 31.5315 56.6057 31.6561C56.5351 31.7808 56.4406 31.8903 56.3276 31.9784C56.2146 32.0665 56.0854 32.1315 55.9473 32.1697C55.8092 32.2079 55.6649 32.2185 55.5227 32.2009C53.6281 31.97 51.7101 32.3655 50.0614 33.327C49.9375 33.4008 49.8166 33.4796 49.6991 33.5633L49.6913 33.5672C49.4626 33.7447 49.1727 33.8241 48.8855 33.788C48.5982 33.7518 48.3371 33.603 48.1596 33.3743C47.9821 33.1456 47.9026 32.8557 47.9388 32.5685C47.975 32.2812 48.1238 32.0201 48.3525 31.8426L48.9431 31.4488V31.4528Z" fill="#C05029"/>
</g>
<g id="Group_15" filter="url(#filter13_f_42_125)">
<path id="Vector_72" d="M63.2835 21.5027C63.1914 21.3256 63.1047 21.1457 63.0237 20.9632C62.8303 20.4786 62.4964 20.0628 62.0649 19.7695C61.6333 19.4762 61.1239 19.3187 60.6021 19.3173H55.5896C48.321 19.3173 42.4345 25.2708 42.4345 32.6222V33.705C41.0957 32.6852 39.4105 30.5392 39.4105 27.0585C39.4105 22.8414 42.4896 20.7073 44.4505 19.3449C45.0056 18.963 45.4742 18.6362 45.7538 18.3487L46.1475 17.9353C47.5257 16.4784 49.9748 13.8757 54.2588 12.7378C56.1969 12.2467 58.1941 12.028 60.1926 12.0881C62.055 12.1353 63.3662 13.7418 63.3662 15.6043V21.4515L63.2875 21.5027H63.2835Z" fill="url(#paint64_radial_42_125)"/>
<path id="Vector_73" d="M63.2835 21.5027C63.1914 21.3256 63.1047 21.1457 63.0237 20.9632C62.8303 20.4786 62.4964 20.0628 62.0649 19.7695C61.6333 19.4762 61.1239 19.3187 60.6021 19.3173H55.5896C48.321 19.3173 42.4345 25.2708 42.4345 32.6222V33.705C41.0957 32.6852 39.4105 30.5392 39.4105 27.0585C39.4105 22.8414 42.4896 20.7073 44.4505 19.3449C45.0056 18.963 45.4742 18.6362 45.7538 18.3487L46.1475 17.9353C47.5257 16.4784 49.9748 13.8757 54.2588 12.7378C56.1969 12.2467 58.1941 12.028 60.1926 12.0881C62.055 12.1353 63.3662 13.7418 63.3662 15.6043V21.4515L63.2875 21.5027H63.2835Z" fill="url(#paint65_radial_42_125)"/>
</g>
<g id="Group_16" filter="url(#filter14_f_42_125)">
<path id="Vector_74" d="M82.8962 34.7799L82.7781 32.2993C82.7387 29.2911 80.2542 26.8104 77.2459 26.6844H71.7334C70.0224 26.6845 68.3429 26.2239 66.8713 25.3509C65.3997 24.478 64.1903 23.2249 63.3702 21.7232C63.3702 21.7232 63.1378 21.1877 62.8977 20.2742C61.8897 16.4548 65.5397 13.5332 69.4182 14.2813C73.2493 15.0294 77.616 16.317 80.8448 18.4236C87.7118 22.9044 86.5108 30.9803 82.8923 34.7799H82.8962Z" fill="url(#paint66_radial_42_125)"/>
<path id="Vector_75" d="M82.8962 34.7799L82.7781 32.2993C82.7387 29.2911 80.2542 26.8104 77.2459 26.6844H71.7334C70.0224 26.6845 68.3429 26.2239 66.8713 25.3509C65.3997 24.478 64.1903 23.2249 63.3702 21.7232C63.3702 21.7232 63.1378 21.1877 62.8977 20.2742C61.8897 16.4548 65.5397 13.5332 69.4182 14.2813C73.2493 15.0294 77.616 16.317 80.8448 18.4236C87.7118 22.9044 86.5108 30.9803 82.8923 34.7799H82.8962Z" fill="url(#paint67_radial_42_125)"/>
<path id="Vector_76" d="M82.8962 34.7799L82.7781 32.2993C82.7387 29.2911 80.2542 26.8104 77.2459 26.6844H71.7334C70.0224 26.6845 68.3429 26.2239 66.8713 25.3509C65.3997 24.478 64.1903 23.2249 63.3702 21.7232C63.3702 21.7232 63.1378 21.1877 62.8977 20.2742C61.8897 16.4548 65.5397 13.5332 69.4182 14.2813C73.2493 15.0294 77.616 16.317 80.8448 18.4236C87.7118 22.9044 86.5108 30.9803 82.8923 34.7799H82.8962Z" fill="url(#paint68_radial_42_125)"/>
<path id="Vector_77" d="M82.8962 34.7799L82.7781 32.2993C82.7387 29.2911 80.2542 26.8104 77.2459 26.6844H71.7334C70.0224 26.6845 68.3429 26.2239 66.8713 25.3509C65.3997 24.478 64.1903 23.2249 63.3702 21.7232C63.3702 21.7232 63.1378 21.1877 62.8977 20.2742C61.8897 16.4548 65.5397 13.5332 69.4182 14.2813C73.2493 15.0294 77.616 16.317 80.8448 18.4236C87.7118 22.9044 86.5108 30.9803 82.8923 34.7799H82.8962Z" fill="url(#paint69_radial_42_125)"/>
<path id="Vector_78" d="M82.8962 34.7799L82.7781 32.2993C82.7387 29.2911 80.2542 26.8104 77.2459 26.6844H71.7334C70.0224 26.6845 68.3429 26.2239 66.8713 25.3509C65.3997 24.478 64.1903 23.2249 63.3702 21.7232C63.3702 21.7232 63.1378 21.1877 62.8977 20.2742C61.8897 16.4548 65.5397 13.5332 69.4182 14.2813C73.2493 15.0294 77.616 16.317 80.8448 18.4236C87.7118 22.9044 86.5108 30.9803 82.8923 34.7799H82.8962Z" fill="url(#paint70_radial_42_125)"/>
</g>
<path id="Vector_79" d="M71.7846 37.0598C74.3558 37.0598 76.5293 38.8316 77.1199 41.2256C77.1602 41.3855 77.1634 41.5526 77.1291 41.7139C77.0948 41.8752 77.024 42.0265 76.9221 42.1561C76.8201 42.2858 76.6899 42.3904 76.5412 42.4618C76.3926 42.5333 76.2296 42.5697 76.0647 42.5683H67.2801C67.1469 42.5688 67.0152 42.5399 66.8944 42.4837C66.7736 42.4274 66.6667 42.3453 66.5814 42.243C66.496 42.1407 66.4343 42.0208 66.4006 41.8919C66.3668 41.763 66.362 41.6283 66.3863 41.4973C66.6333 40.2471 67.3065 39.1213 68.291 38.3121C69.2754 37.5028 70.5102 37.0602 71.7846 37.0598Z" fill="white"/>
<path id="Vector_80" d="M70.9695 38.1268C71.51 38.1269 72.0431 38.2517 72.5274 38.4916C73.0117 38.7314 73.4341 39.0798 73.7618 39.5096C74.0894 39.9393 74.3135 40.4389 74.4165 40.9694C74.5195 41.5 74.4988 42.0471 74.3558 42.5683H67.5675C67.4275 42.046 67.4094 41.4985 67.5147 40.9682C67.6199 40.4378 67.8456 39.9387 68.1744 39.5095C68.5032 39.0802 68.9262 38.7323 69.4109 38.4925C69.8955 38.2528 70.4288 38.1276 70.9695 38.1268Z" fill="url(#paint71_radial_42_125)"/>
<path id="Vector_81" d="M68.9575 41.643C68.9575 40.5247 69.8513 39.6309 70.9695 39.6309C71.3158 39.6285 71.6569 39.7159 71.9594 39.8845C72.2619 40.0531 72.5155 40.2973 72.6956 40.5931C72.8756 40.889 72.9759 41.2264 72.9867 41.5726C72.9975 41.9187 72.9184 42.2618 72.7572 42.5683H69.1976C69.0365 42.2868 68.9536 41.9673 68.9575 41.643Z" fill="black"/>
<g id="Group_17" filter="url(#filter15_f_42_125)">
<path id="Vector_82" d="M70.7097 38.871C70.9617 39.2056 70.438 39.6112 69.8434 40.0601C69.2488 40.505 68.8078 40.8161 68.5558 40.4814C68.3078 40.1467 68.5873 39.5128 69.1819 39.0678C69.7725 38.6229 70.4616 38.5363 70.7097 38.871Z" fill="#C7A7A3"/>
<path id="Vector_83" d="M70.7097 38.871C70.9617 39.2056 70.438 39.6112 69.8434 40.0601C69.2488 40.505 68.8078 40.8161 68.5558 40.4814C68.3078 40.1467 68.5873 39.5128 69.1819 39.0678C69.7725 38.6229 70.4616 38.5363 70.7097 38.871Z" fill="url(#paint72_radial_42_125)"/>
</g>
<g id="Group_18" filter="url(#filter16_f_42_125)">
<path id="Vector_84" d="M74.0998 41.1784C73.9942 40.491 73.6745 39.8545 73.1863 39.3593L72.1626 40.4814L72.6272 41.3792L74.0998 41.1823V41.1784Z" fill="url(#paint73_linear_42_125)"/>
</g>
<path id="Vector_85" d="M52.9594 37.0558C50.3843 37.0558 48.2108 38.8277 47.6202 41.2256C47.4469 41.9107 47.9745 42.5643 48.6754 42.5643H57.46C57.5928 42.5647 57.7241 42.5359 57.8445 42.4799C57.965 42.4239 58.0716 42.3421 58.1569 42.2403C58.2422 42.1384 58.3041 42.0191 58.3381 41.8907C58.3721 41.7623 58.3775 41.628 58.3538 41.4973C58.1056 40.248 57.4328 39.1231 56.4495 38.3135C55.4662 37.5039 54.2331 37.0596 52.9594 37.0558Z" fill="white"/>
<path id="Vector_86" d="M53.7705 38.1268C53.2304 38.1277 52.6977 38.2531 52.2138 38.4931C51.7299 38.7332 51.3078 39.0815 50.9803 39.5111C50.6528 39.9407 50.4287 40.4399 50.3253 40.9701C50.222 41.5003 50.2421 42.0471 50.3843 42.5683H57.1725C57.2559 42.2668 57.2996 41.9557 57.3025 41.643C57.2962 40.7096 56.9216 39.8165 56.2602 39.158C55.5987 38.4994 54.7039 38.1288 53.7705 38.1268Z" fill="url(#paint74_radial_42_125)"/>
<path id="Vector_87" d="M55.7826 41.643C55.7836 41.3785 55.7323 41.1164 55.6316 40.8718C55.5308 40.6272 55.3826 40.405 55.1956 40.2179C55.0085 40.0309 54.7863 39.8827 54.5417 39.782C54.2972 39.6812 54.035 39.6299 53.7705 39.6309C53.4239 39.6278 53.0823 39.7147 52.7793 39.8831C52.4763 40.0514 52.2221 40.2955 52.0416 40.5915C51.861 40.8874 51.7604 41.2251 51.7494 41.5716C51.7384 41.9181 51.8175 42.2615 51.979 42.5683H55.5424C55.6962 42.2839 55.7786 41.9663 55.7826 41.643Z" fill="black"/>
<g id="Group_19" filter="url(#filter17_f_42_125)">
<path id="Vector_88" d="M56.9796 41.2256C56.9796 40.0916 56.0582 39.3356 55.8062 39.1072L54.6722 40.2058L55.3731 41.6272L56.9796 41.2295V41.2256Z" fill="url(#paint75_linear_42_125)"/>
</g>
<g id="Group_20" filter="url(#filter18_f_42_125)">
<path id="Vector_89" d="M53.0745 40.3163C53.8239 39.9193 54.2688 39.2906 54.0683 38.912C53.8677 38.5335 53.0976 38.5484 52.3482 38.9455C51.5988 39.3425 51.1538 39.9712 51.3544 40.3498C51.5549 40.7284 52.325 40.7134 53.0745 40.3163Z" fill="#C7A7A3" fill-opacity="0.9"/>
<path id="Vector_90" d="M53.0745 40.3163C53.8239 39.9193 54.2688 39.2906 54.0683 38.912C53.8677 38.5335 53.0976 38.5484 52.3482 38.9455C51.5988 39.3425 51.1538 39.9712 51.3544 40.3498C51.5549 40.7284 52.325 40.7134 53.0745 40.3163Z" fill="url(#paint76_radial_42_125)"/>
</g>
<path id="Vector_91" d="M81.7504 48.8919C82.0103 44.7024 82.2583 40.5169 82.4749 36.3313C83.9951 36.6104 85.361 37.4352 86.3157 38.6507C87.2704 39.8661 87.7481 41.3885 87.6591 42.9315C87.5701 44.4746 86.9205 45.9319 85.8324 47.0296C84.7442 48.1272 83.2926 48.7895 81.7504 48.8919Z" fill="url(#paint77_linear_42_125)"/>
<path id="Vector_92" d="M81.7504 48.8919C82.0103 44.7024 82.2583 40.5169 82.4749 36.3313C83.9951 36.6104 85.361 37.4352 86.3157 38.6507C87.2704 39.8661 87.7481 41.3885 87.6591 42.9315C87.5701 44.4746 86.9205 45.9319 85.8324 47.0296C84.7442 48.1272 83.2926 48.7895 81.7504 48.8919Z" fill="url(#paint78_radial_42_125)"/>
<path id="Vector_93" d="M81.7504 48.8919C82.0103 44.7024 82.2583 40.5169 82.4749 36.3313C83.9951 36.6104 85.361 37.4352 86.3157 38.6507C87.2704 39.8661 87.7481 41.3885 87.6591 42.9315C87.5701 44.4746 86.9205 45.9319 85.8324 47.0296C84.7442 48.1272 83.2926 48.7895 81.7504 48.8919Z" fill="url(#paint79_radial_42_125)"/>
<path id="Vector_94" d="M42.4699 36.2958C40.918 36.524 39.5058 37.3194 38.5063 38.5283C37.5068 39.7372 36.991 41.2738 37.0586 42.8409C37.1261 44.4081 37.7723 45.8945 38.8722 47.0129C39.9721 48.1312 41.4475 48.8021 43.0133 48.8958C42.7459 44.7 42.5647 40.4991 42.4699 36.2958Z" fill="url(#paint80_linear_42_125)"/>
<path id="Vector_95" d="M42.4699 36.2958C40.918 36.524 39.5058 37.3194 38.5063 38.5283C37.5068 39.7372 36.991 41.2738 37.0586 42.8409C37.1261 44.4081 37.7723 45.8945 38.8722 47.0129C39.9721 48.1312 41.4475 48.8021 43.0133 48.8958C42.7459 44.7 42.5647 40.4991 42.4699 36.2958Z" fill="url(#paint81_radial_42_125)"/>
<g id="Group_21" filter="url(#filter19_f_42_125)">
<path id="Vector_96" d="M42.5368 38.8986C41.6757 39.0929 40.9102 39.5838 40.3743 40.2854C39.8384 40.9869 39.5661 41.8545 39.605 42.7365C39.644 43.6184 39.9917 44.4586 40.5873 45.1102C41.183 45.7618 41.9887 46.1833 42.8636 46.3011C42.725 43.835 42.6161 41.3673 42.5368 38.8986Z" fill="#DD8224"/>
</g>
<g id="Group_22" filter="url(#filter20_f_42_125)">
<path id="Vector_97" d="M81.9079 46.3286C82.0575 43.8323 82.2072 41.3319 82.341 38.8356C83.2798 38.9639 84.1357 39.4415 84.7378 40.1731C85.34 40.9047 85.644 41.8364 85.5894 42.7824C85.5347 43.7283 85.1253 44.6189 84.4429 45.2762C83.7604 45.9336 82.8552 46.3094 81.9079 46.3286Z" fill="#FFC837"/>
</g>
<g id="Group_23" filter="url(#filter21_f_42_125)">
<path id="Vector_98" d="M49.0888 32.5552C50.1008 31.8268 52.6208 30.5471 55.6054 31.0511" stroke="#C96953" stroke-width="0.15" stroke-linecap="round"/>
</g>
<g id="Group_24" filter="url(#filter22_f_42_125)">
<path id="Vector_99" d="M76.3875 32.3702C75.3795 31.6457 72.8556 30.3699 69.8749 30.87" stroke="#C96953" stroke-width="0.15" stroke-linecap="round"/>
</g>
</g>
</g>
<defs>
<filter id="filter0_f_42_125" x="37.9182" y="65.6422" width="22.2664" height="39.6312" filterUnits="userSpaceOnUse" color-interpolation-filters="sRGB">
<feFlood flood-opacity="0" result="BackgroundImageFix"/>
<feBlend mode="normal" in="SourceGraphic" in2="BackgroundImageFix" result="shape"/>
<feGaussianBlur stdDeviation="0.5" result="effect1_foregroundBlur_42_125"/>
</filter>
<filter id="filter1_f_42_125" x="65.0673" y="65.6422" width="22.2626" height="39.6312" filterUnits="userSpaceOnUse" color-interpolation-filters="sRGB">
<feFlood flood-opacity="0" result="BackgroundImageFix"/>
<feBlend mode="normal" in="SourceGraphic" in2="BackgroundImageFix" result="shape"/>
<feGaussianBlur stdDeviation="0.5" result="effect1_foregroundBlur_42_125"/>
</filter>
<filter id="filter2_f_42_125" x="68.6806" y="97.2406" width="10.1625" height="10.1625" filterUnits="userSpaceOnUse" color-interpolation-filters="sRGB">
<feFlood flood-opacity="0" result="BackgroundImageFix"/>
<feBlend mode="normal" in="SourceGraphic" in2="BackgroundImageFix" result="shape"/>
<feGaussianBlur stdDeviation="0.375" result="effect1_foregroundBlur_42_125"/>
</filter>
<filter id="filter3_i_42_125" x="74.1038" y="97.9926" width="5.59125" height="5.59125" filterUnits="userSpaceOnUse" color-interpolation-filters="sRGB">
<feFlood flood-opacity="0" result="BackgroundImageFix"/>
<feBlend mode="normal" in="SourceGraphic" in2="BackgroundImageFix" result="shape"/>
<feColorMatrix in="SourceAlpha" type="matrix" values="0 0 0 0 0 0 0 0 0 0 0 0 0 0 0 0 0 0 127 0" result="hardAlpha"/>
<feOffset/>
<feGaussianBlur stdDeviation="0.1"/>
<feComposite in2="hardAlpha" operator="arithmetic" k2="-1" k3="1"/>
<feColorMatrix type="matrix" values="0 0 0 0 0.14902 0 0 0 0 0.411765 0 0 0 0 0.721569 0 0 0 1 0"/>
<feBlend mode="normal" in2="shape" result="effect1_innerShadow_42_125"/>
</filter>
<filter id="filter4_i_42_125" x="36.8944" y="78.5815" width="21.1838" height="27.6444" filterUnits="userSpaceOnUse" color-interpolation-filters="sRGB">
<feFlood flood-opacity="0" result="BackgroundImageFix"/>
<feBlend mode="normal" in="SourceGraphic" in2="BackgroundImageFix" result="shape"/>
<feColorMatrix in="SourceAlpha" type="matrix" values="0 0 0 0 0 0 0 0 0 0 0 0 0 0 0 0 0 0 127 0" result="hardAlpha"/>
<feOffset dy="-0.2"/>
<feGaussianBlur stdDeviation="0.1"/>
<feComposite in2="hardAlpha" operator="arithmetic" k2="-1" k3="1"/>
<feColorMatrix type="matrix" values="0 0 0 0 0.333333 0 0 0 0 0.239216 0 0 0 0 0.501961 0 0 0 1 0"/>
<feBlend mode="normal" in2="shape" result="effect1_innerShadow_42_125"/>
</filter>
<filter id="filter5_f_42_125" x="38.4761" y="79.9931" width="18.225" height="24.4856" filterUnits="userSpaceOnUse" color-interpolation-filters="sRGB">
<feFlood flood-opacity="0" result="BackgroundImageFix"/>
<feBlend mode="normal" in="SourceGraphic" in2="BackgroundImageFix" result="shape"/>
<feGaussianBlur stdDeviation="0.15" result="effect1_foregroundBlur_42_125"/>
</filter>
<filter id="filter6_ii_42_125" x="42.4344" y="19.3174" width="40.7412" height="48.7927" filterUnits="userSpaceOnUse" color-interpolation-filters="sRGB">
<feFlood flood-opacity="0" result="BackgroundImageFix"/>
<feBlend mode="normal" in="SourceGraphic" in2="BackgroundImageFix" result="shape"/>
<feColorMatrix in="SourceAlpha" type="matrix" values="0 0 0 0 0 0 0 0 0 0 0 0 0 0 0 0 0 0 127 0" result="hardAlpha"/>
<feOffset dx="0.5"/>
<feGaussianBlur stdDeviation="0.5"/>
<feComposite in2="hardAlpha" operator="arithmetic" k2="-1" k3="1"/>
<feColorMatrix type="matrix" values="0 0 0 0 0.823529 0 0 0 0 0.623529 0 0 0 0 0.313726 0 0 0 1 0"/>
<feBlend mode="normal" in2="shape" result="effect1_innerShadow_42_125"/>
<feColorMatrix in="SourceAlpha" type="matrix" values="0 0 0 0 0 0 0 0 0 0 0 0 0 0 0 0 0 0 127 0" result="hardAlpha"/>
<feOffset dy="0.2"/>
<feGaussianBlur stdDeviation="0.375"/>
<feComposite in2="hardAlpha" operator="arithmetic" k2="-1" k3="1"/>
<feColorMatrix type="matrix" values="0 0 0 0 0.980392 0 0 0 0 0.54902 0 0 0 0 0.0941176 0 0 0 1 0"/>
<feBlend mode="normal" in2="effect1_innerShadow_42_125" result="effect2_innerShadow_42_125"/>
</filter>
<filter id="filter7_f_42_125" x="56.859" y="39.3663" width="9.38959" height="13.4197" filterUnits="userSpaceOnUse" color-interpolation-filters="sRGB">
<feFlood flood-opacity="0" result="BackgroundImageFix"/>
<feBlend mode="normal" in="SourceGraphic" in2="BackgroundImageFix" result="shape"/>
<feGaussianBlur stdDeviation="0.5" result="effect1_foregroundBlur_42_125"/>
</filter>
<filter id="filter8_f_42_125" x="58.574" y="39.4984" width="7.59093" height="11.6197" filterUnits="userSpaceOnUse" color-interpolation-filters="sRGB">
<feFlood flood-opacity="0" result="BackgroundImageFix"/>
<feBlend mode="normal" in="SourceGraphic" in2="BackgroundImageFix" result="shape"/>
<feGaussianBlur stdDeviation="0.05" result="effect1_foregroundBlur_42_125"/>
</filter>
<filter id="filter9_f_42_125" x="55.5641" y="53.187" width="13.611" height="5.1646" filterUnits="userSpaceOnUse" color-interpolation-filters="sRGB">
<feFlood flood-opacity="0" result="BackgroundImageFix"/>
<feBlend mode="normal" in="SourceGraphic" in2="BackgroundImageFix" result="shape"/>
<feGaussianBlur stdDeviation="0.05" result="effect1_foregroundBlur_42_125"/>
</filter>
<filter id="filter10_ii_42_125" x="37.03" y="8.27667" width="50.6819" height="31.437" filterUnits="userSpaceOnUse" color-interpolation-filters="sRGB">
<feFlood flood-opacity="0" result="BackgroundImageFix"/>
<feBlend mode="normal" in="SourceGraphic" in2="BackgroundImageFix" result="shape"/>
<feColorMatrix in="SourceAlpha" type="matrix" values="0 0 0 0 0 0 0 0 0 0 0 0 0 0 0 0 0 0 127 0" result="hardAlpha"/>
<feOffset dy="-0.5"/>
<feGaussianBlur stdDeviation="0.625"/>
<feComposite in2="hardAlpha" operator="arithmetic" k2="-1" k3="1"/>
<feColorMatrix type="matrix" values="0 0 0 0 0.945098 0 0 0 0 0.509804 0 0 0 0 0.0627451 0 0 0 1 0"/>
<feBlend mode="normal" in2="shape" result="effect1_innerShadow_42_125"/>
<feColorMatrix in="SourceAlpha" type="matrix" values="0 0 0 0 0 0 0 0 0 0 0 0 0 0 0 0 0 0 127 0" result="hardAlpha"/>
<feOffset dy="-0.2"/>
<feGaussianBlur stdDeviation="0.2"/>
<feComposite in2="hardAlpha" operator="arithmetic" k2="-1" k3="1"/>
<feColorMatrix type="matrix" values="0 0 0 0 0.862745 0 0 0 0 0.486275 0 0 0 0 0.0470588 0 0 0 1 0"/>
<feBlend mode="normal" in2="effect1_innerShadow_42_125" result="effect2_innerShadow_42_125"/>
</filter>
<filter id="filter11_i_42_125" x="68.6285" y="29.6969" width="8.91476" height="4.09923" filterUnits="userSpaceOnUse" color-interpolation-filters="sRGB">
<feFlood flood-opacity="0" result="BackgroundImageFix"/>
<feBlend mode="normal" in="SourceGraphic" in2="BackgroundImageFix" result="shape"/>
<feColorMatrix in="SourceAlpha" type="matrix" values="0 0 0 0 0 0 0 0 0 0 0 0 0 0 0 0 0 0 127 0" result="hardAlpha"/>
<feOffset dx="0.1" dy="-0.2"/>
<feGaussianBlur stdDeviation="0.125"/>
<feComposite in2="hardAlpha" operator="arithmetic" k2="-1" k3="1"/>
<feColorMatrix type="matrix" values="0 0 0 0 0.603922 0 0 0 0 0.243137 0 0 0 0 0.152941 0 0 0 1 0"/>
<feBlend mode="normal" in2="shape" result="effect1_innerShadow_42_125"/>
</filter>
<filter id="filter12_i_42_125" x="47.9303" y="29.7545" width="8.91738" height="4.04204" filterUnits="userSpaceOnUse" color-interpolation-filters="sRGB">
<feFlood flood-opacity="0" result="BackgroundImageFix"/>
<feBlend mode="normal" in="SourceGraphic" in2="BackgroundImageFix" result="shape"/>
<feColorMatrix in="SourceAlpha" type="matrix" values="0 0 0 0 0 0 0 0 0 0 0 0 0 0 0 0 0 0 127 0" result="hardAlpha"/>
<feOffset dx="0.1" dy="-0.2"/>
<feGaussianBlur stdDeviation="0.125"/>
<feComposite in2="hardAlpha" operator="arithmetic" k2="-1" k3="1"/>
<feColorMatrix type="matrix" values="0 0 0 0 0.603922 0 0 0 0 0.243137 0 0 0 0 0.152941 0 0 0 1 0"/>
<feBlend mode="normal" in2="shape" result="effect1_innerShadow_42_125"/>
</filter>
<filter id="filter13_f_42_125" x="39.1605" y="11.8284" width="24.4557" height="22.1266" filterUnits="userSpaceOnUse" color-interpolation-filters="sRGB">
<feFlood flood-opacity="0" result="BackgroundImageFix"/>
<feBlend mode="normal" in="SourceGraphic" in2="BackgroundImageFix" result="shape"/>
<feGaussianBlur stdDeviation="0.125" result="effect1_foregroundBlur_42_125"/>
</filter>
<filter id="filter14_f_42_125" x="62.478" y="13.9138" width="23.5791" height="21.1161" filterUnits="userSpaceOnUse" color-interpolation-filters="sRGB">
<feFlood flood-opacity="0" result="BackgroundImageFix"/>
<feBlend mode="normal" in="SourceGraphic" in2="BackgroundImageFix" result="shape"/>
<feGaussianBlur stdDeviation="0.125" result="effect1_foregroundBlur_42_125"/>
</filter>
<filter id="filter15_f_42_125" x="68.3654" y="38.5674" width="2.50908" height="2.15471" filterUnits="userSpaceOnUse" color-interpolation-filters="sRGB">
<feFlood flood-opacity="0" result="BackgroundImageFix"/>
<feBlend mode="normal" in="SourceGraphic" in2="BackgroundImageFix" result="shape"/>
<feGaussianBlur stdDeviation="0.05" result="effect1_foregroundBlur_42_125"/>
</filter>
<filter id="filter16_f_42_125" x="71.9626" y="39.1593" width="2.33726" height="2.41996" filterUnits="userSpaceOnUse" color-interpolation-filters="sRGB">
<feFlood flood-opacity="0" result="BackgroundImageFix"/>
<feBlend mode="normal" in="SourceGraphic" in2="BackgroundImageFix" result="shape"/>
<feGaussianBlur stdDeviation="0.1" result="effect1_foregroundBlur_42_125"/>
</filter>
<filter id="filter17_f_42_125" x="54.4722" y="38.9072" width="2.70737" height="2.92002" filterUnits="userSpaceOnUse" color-interpolation-filters="sRGB">
<feFlood flood-opacity="0" result="BackgroundImageFix"/>
<feBlend mode="normal" in="SourceGraphic" in2="BackgroundImageFix" result="shape"/>
<feGaussianBlur stdDeviation="0.1" result="effect1_foregroundBlur_42_125"/>
</filter>
<filter id="filter18_f_42_125" x="51.2063" y="38.5376" width="3.01012" height="2.18657" filterUnits="userSpaceOnUse" color-interpolation-filters="sRGB">
<feFlood flood-opacity="0" result="BackgroundImageFix"/>
<feBlend mode="normal" in="SourceGraphic" in2="BackgroundImageFix" result="shape"/>
<feGaussianBlur stdDeviation="0.05" result="effect1_foregroundBlur_42_125"/>
</filter>
<filter id="filter19_f_42_125" x="39.3514" y="38.6486" width="3.76227" height="7.90253" filterUnits="userSpaceOnUse" color-interpolation-filters="sRGB">
<feFlood flood-opacity="0" result="BackgroundImageFix"/>
<feBlend mode="normal" in="SourceGraphic" in2="BackgroundImageFix" result="shape"/>
<feGaussianBlur stdDeviation="0.125" result="effect1_foregroundBlur_42_125"/>
</filter>
<filter id="filter20_f_42_125" x="81.6579" y="38.5856" width="4.18774" height="7.99304" filterUnits="userSpaceOnUse" color-interpolation-filters="sRGB">
<feFlood flood-opacity="0" result="BackgroundImageFix"/>
<feBlend mode="normal" in="SourceGraphic" in2="BackgroundImageFix" result="shape"/>
<feGaussianBlur stdDeviation="0.125" result="effect1_foregroundBlur_42_125"/>
</filter>
<filter id="filter21_f_42_125" x="48.7638" y="30.6116" width="7.1666" height="2.26868" filterUnits="userSpaceOnUse" color-interpolation-filters="sRGB">
<feFlood flood-opacity="0" result="BackgroundImageFix"/>
<feBlend mode="normal" in="SourceGraphic" in2="BackgroundImageFix" result="shape"/>
<feGaussianBlur stdDeviation="0.125" result="effect1_foregroundBlur_42_125"/>
</filter>
<filter id="filter22_f_42_125" x="69.5499" y="30.4318" width="7.16263" height="2.26343" filterUnits="userSpaceOnUse" color-interpolation-filters="sRGB">
<feFlood flood-opacity="0" result="BackgroundImageFix"/>
<feBlend mode="normal" in="SourceGraphic" in2="BackgroundImageFix" result="shape"/>
<feGaussianBlur stdDeviation="0.125" result="effect1_foregroundBlur_42_125"/>
</filter>
<radialGradient id="paint0_radial_42_125" cx="0" cy="0" r="1" gradientUnits="userSpaceOnUse" gradientTransform="translate(90.7594 94.7284) rotate(180) scale(42.525 81.4767)">
<stop stop-color="#EFEAFB"/>
<stop offset="1" stop-color="#D4CAE9"/>
</radialGradient>
<linearGradient id="paint1_linear_42_125" x1="91.2083" y1="97.4059" x2="89.9798" y2="97.4059" gradientUnits="userSpaceOnUse">
<stop offset="0.225" stop-color="#D4CCDC"/>
<stop offset="1" stop-color="#D4CCDC" stop-opacity="0"/>
</linearGradient>
<linearGradient id="paint2_linear_42_125" x1="33.8074" y1="97.4059" x2="35.1304" y2="97.4059" gradientUnits="userSpaceOnUse">
<stop offset="0.383" stop-color="#B7AFC3"/>
<stop offset="1" stop-color="#B7AFC3" stop-opacity="0"/>
</linearGradient>
<linearGradient id="paint3_linear_42_125" x1="63.1221" y1="122.417" x2="63.1221" y2="115.278" gradientUnits="userSpaceOnUse">
<stop stop-color="#C8B7DE"/>
<stop offset="1" stop-color="#C8B7DE" stop-opacity="0"/>
</linearGradient>
<radialGradient id="paint4_radial_42_125" cx="0" cy="0" r="1" gradientUnits="userSpaceOnUse" gradientTransform="translate(86.3798 113.929) rotate(-121.204) scale(65.3125 64.3722)">
<stop offset="0.587" stop-color="#BEBAC5" stop-opacity="0"/>
<stop offset="1" stop-color="#BEBAC5"/>
</radialGradient>
<radialGradient id="paint5_radial_42_125" cx="0" cy="0" r="1" gradientUnits="userSpaceOnUse" gradientTransform="translate(70.5049 96.9413) rotate(77.1523) scale(14.3875 15.9189)">
<stop stop-color="#B2A6C7"/>
<stop offset="1" stop-color="#B2A6C7" stop-opacity="0"/>
</radialGradient>
<radialGradient id="paint6_radial_42_125" cx="0" cy="0" r="1" gradientUnits="userSpaceOnUse" gradientTransform="translate(62.2952 118.625) rotate(-90) scale(31.4016 3.78106)">
<stop stop-color="#B1909E"/>
<stop offset="1" stop-color="#B1909E" stop-opacity="0"/>
</radialGradient>
<linearGradient id="paint7_linear_42_125" x1="34.1381" y1="61.2951" x2="90.7437" y2="61.2951" gradientUnits="userSpaceOnUse">
<stop offset="0.006" stop-color="#CCCCCC"/>
<stop offset="1" stop-color="#E6E6E6"/>
</linearGradient>
<linearGradient id="paint8_linear_42_125" x1="34.1382" y1="61.173" x2="90.7436" y2="61.173" gradientUnits="userSpaceOnUse">
<stop offset="0.006" stop-color="#CCCCCC"/>
<stop offset="1" stop-color="#E6E6E6"/>
</linearGradient>
<radialGradient id="paint9_radial_42_125" cx="0" cy="0" r="1" gradientUnits="userSpaceOnUse" gradientTransform="translate(20.4238 97.8075) rotate(5.18546) scale(13.6144 37.7983)">
<stop stop-color="#D3D0D5"/>
<stop offset="1" stop-color="#C8BFD6"/>
</radialGradient>
<radialGradient id="paint10_radial_42_125" cx="0" cy="0" r="1" gradientUnits="userSpaceOnUse" gradientTransform="translate(36.7928 70.4903) rotate(107.994) scale(26.289 29.4425)">
<stop stop-color="#C4C3C3"/>
<stop offset="1" stop-color="#C4C3C3" stop-opacity="0"/>
</radialGradient>
<linearGradient id="paint11_linear_42_125" x1="26.9719" y1="121.681" x2="26.9719" y2="115.932" gradientUnits="userSpaceOnUse">
<stop stop-color="#C8B7DE"/>
<stop offset="1" stop-color="#C8B7DE" stop-opacity="0"/>
</linearGradient>
<radialGradient id="paint12_radial_42_125" cx="0" cy="0" r="1" gradientUnits="userSpaceOnUse" gradientTransform="translate(102.714 86.9793) rotate(155.425) scale(13.3139 35.2161)">
<stop stop-color="#FCF9FF"/>
<stop offset="1" stop-color="#E6DDF3"/>
</radialGradient>
<radialGradient id="paint13_radial_42_125" cx="0" cy="0" r="1" gradientUnits="userSpaceOnUse" gradientTransform="translate(96.0671 80.5809) rotate(90) scale(43.3125 33.3269)">
<stop offset="0.781" stop-color="#D1C0E3" stop-opacity="0"/>
<stop offset="0.974" stop-color="#D1C0E3"/>
</radialGradient>
<linearGradient id="paint14_linear_42_125" x1="88.6765" y1="101.493" x2="91.7438" y2="101.493" gradientUnits="userSpaceOnUse">
<stop offset="0.643" stop-color="#D4CCDC"/>
<stop offset="1" stop-color="#D4CCDC" stop-opacity="0"/>
</linearGradient>
<radialGradient id="paint15_radial_42_125" cx="0" cy="0" r="1" gradientUnits="userSpaceOnUse" gradientTransform="translate(62.4291 73.5643) rotate(90) scale(22.2715 11.8568)">
<stop offset="0.398" stop-color="#E56E23"/>
<stop offset="1" stop-color="#B04418"/>
</radialGradient>
<radialGradient id="paint16_radial_42_125" cx="0" cy="0" r="1" gradientUnits="userSpaceOnUse" gradientTransform="translate(63.8623 120.566) rotate(-90) scale(25.7168 11.2632)">
<stop offset="0.344" stop-color="#E35628"/>
<stop offset="1" stop-color="#E35628" stop-opacity="0"/>
</radialGradient>
<linearGradient id="paint17_linear_42_125" x1="34.1381" y1="61.2951" x2="90.7437" y2="61.2951" gradientUnits="userSpaceOnUse">
<stop offset="0.006" stop-color="#CCCCCC"/>
<stop offset="1" stop-color="#E6E6E6"/>
</linearGradient>
<linearGradient id="paint18_linear_42_125" x1="34.1382" y1="61.173" x2="90.7436" y2="61.173" gradientUnits="userSpaceOnUse">
<stop offset="0.006" stop-color="#CCCCCC"/>
<stop offset="1" stop-color="#E6E6E6"/>
</linearGradient>
<linearGradient id="paint19_linear_42_125" x1="63.1221" y1="106.789" x2="93.1455" y2="76.8875" gradientUnits="userSpaceOnUse">
<stop stop-color="#AD9EC2"/>
<stop offset="1" stop-color="#D3CFDA"/>
</linearGradient>
<linearGradient id="paint20_linear_42_125" x1="85.621" y1="72.9107" x2="65.4807" y2="94.6378" gradientUnits="userSpaceOnUse">
<stop stop-color="#FDF6F9"/>
<stop offset="1" stop-color="#BDB2D2"/>
</linearGradient>
<linearGradient id="paint21_linear_42_125" x1="78.3523" y1="62.2046" x2="77.7342" y2="70.3237" gradientUnits="userSpaceOnUse">
<stop stop-color="#EDD8CE"/>
<stop offset="1" stop-color="#EDD8CE" stop-opacity="0"/>
</linearGradient>
<linearGradient id="paint22_linear_42_125" x1="68.6622" y1="74.9818" x2="73.2139" y2="76.8875" gradientUnits="userSpaceOnUse">
<stop stop-color="#B49089"/>
<stop offset="1" stop-color="#DED4E6" stop-opacity="0"/>
</linearGradient>
<radialGradient id="paint23_radial_42_125" cx="0" cy="0" r="1" gradientUnits="userSpaceOnUse" gradientTransform="translate(74.7889 71.8436) rotate(90) scale(24.3633 3.32951)">
<stop stop-color="#AA98A1"/>
<stop offset="1" stop-color="#DAD1E4" stop-opacity="0"/>
</radialGradient>
<radialGradient id="paint24_radial_42_125" cx="0" cy="0" r="1" gradientUnits="userSpaceOnUse" gradientTransform="translate(64.1892 105.084) rotate(-48.5804) scale(16.0228 5.4724)">
<stop stop-color="#B7A3CF"/>
<stop offset="1" stop-color="#B7A3CF" stop-opacity="0"/>
</radialGradient>
<radialGradient id="paint25_radial_42_125" cx="0" cy="0" r="1" gradientUnits="userSpaceOnUse" gradientTransform="translate(74.7889 98.4217) rotate(-90) scale(19.0723 2.1785)">
<stop stop-color="#A298B4"/>
<stop offset="1" stop-color="#A298B4" stop-opacity="0"/>
</radialGradient>
<radialGradient id="paint26_radial_42_125" cx="0" cy="0" r="1" gradientUnits="userSpaceOnUse" gradientTransform="translate(56.4764 78.606) rotate(158.705) scale(12.8102 25.1517)">
<stop offset="0.088" stop-color="#EFE1E3"/>
<stop offset="1" stop-color="#BDB0D0"/>
</radialGradient>
<radialGradient id="paint27_radial_42_125" cx="0" cy="0" r="1" gradientUnits="userSpaceOnUse" gradientTransform="translate(39.316 98.6344) rotate(-69.7629) scale(39.3978 31.9854)">
<stop offset="0.691" stop-color="#B3A299" stop-opacity="0"/>
<stop offset="1" stop-color="#B3A299"/>
</radialGradient>
<linearGradient id="paint28_linear_42_125" x1="47.7422" y1="91.9012" x2="49.0337" y2="90.4837" gradientUnits="userSpaceOnUse">
<stop stop-color="#B2A6C6"/>
<stop offset="1" stop-color="#B2A6C6" stop-opacity="0"/>
</linearGradient>
<radialGradient id="paint29_radial_42_125" cx="0" cy="0" r="1" gradientUnits="userSpaceOnUse" gradientTransform="translate(39.9893 77.2616) rotate(-81.961) scale(10.9977 8.42581)">
<stop stop-color="#CBC5CF"/>
<stop offset="1" stop-color="#BDB1AD" stop-opacity="0"/>
</radialGradient>
<radialGradient id="paint30_radial_42_125" cx="0" cy="0" r="1" gradientUnits="userSpaceOnUse" gradientTransform="translate(47.065 72.6469) rotate(101.232) scale(8.84418 2.71533)">
<stop offset="0.439" stop-color="#ADA5AB"/>
<stop offset="1" stop-color="#ADA5AB" stop-opacity="0"/>
</radialGradient>
<radialGradient id="paint31_radial_42_125" cx="0" cy="0" r="1" gradientUnits="userSpaceOnUse" gradientTransform="translate(48.4195 84.5184) rotate(49.2949) scale(11.0374 3.83609)">
<stop stop-color="#B5A9BF"/>
<stop offset="1" stop-color="#B5A9BF" stop-opacity="0"/>
</radialGradient>
<radialGradient id="paint32_radial_42_125" cx="0" cy="0" r="1" gradientUnits="userSpaceOnUse" gradientTransform="translate(62.37 74.2101) rotate(-90) scale(10.7347 12.6886)">
<stop offset="0.135" stop-color="#E18E23"/>
<stop offset="0.577" stop-color="#CC711F"/>
<stop offset="1" stop-color="#964B08"/>
</radialGradient>
<linearGradient id="paint33_linear_42_125" x1="79.3958" y1="93.744" x2="76.7498" y2="93.807" gradientUnits="userSpaceOnUse">
<stop offset="0.294" stop-color="#746992"/>
<stop offset="1" stop-color="#746992" stop-opacity="0"/>
</linearGradient>
<radialGradient id="paint34_radial_42_125" cx="0" cy="0" r="1" gradientUnits="userSpaceOnUse" gradientTransform="translate(72.2925 65.016) rotate(90) scale(7.01367 5.136)">
<stop offset="0.123" stop-color="#552E54"/>
<stop offset="1" stop-color="#552E54" stop-opacity="0"/>
</radialGradient>
<radialGradient id="paint35_radial_42_125" cx="0" cy="0" r="1" gradientUnits="userSpaceOnUse" gradientTransform="translate(48.9707 79.4115) rotate(-90) scale(12.3662 2.33789)">
<stop stop-color="#716687"/>
<stop offset="1" stop-color="#716687" stop-opacity="0"/>
</radialGradient>
<radialGradient id="paint36_radial_42_125" cx="0" cy="0" r="1" gradientUnits="userSpaceOnUse" gradientTransform="translate(52.605 63.9686) rotate(117.031) scale(6.76866 7.23174)">
<stop offset="0.145" stop-color="#4A2657"/>
<stop offset="1" stop-color="#4A2657" stop-opacity="0"/>
</radialGradient>
<radialGradient id="paint37_radial_42_125" cx="0" cy="0" r="1" gradientUnits="userSpaceOnUse" gradientTransform="translate(78.831 98.6198) rotate(121.842) scale(7.49736 6.73986)">
<stop offset="0.213" stop-color="#49A3E6"/>
<stop offset="1" stop-color="#2B86DD"/>
</radialGradient>
<radialGradient id="paint38_radial_42_125" cx="0" cy="0" r="1" gradientUnits="userSpaceOnUse" gradientTransform="translate(75.2181 102.513) rotate(-45) scale(4.37949 2.89321)">
<stop offset="0.204" stop-color="#4C7BBF"/>
<stop offset="1" stop-color="#2C6DBD"/>
</radialGradient>
<linearGradient id="paint39_linear_42_125" x1="47.4863" y1="78.7776" x2="47.4863" y2="112.573" gradientUnits="userSpaceOnUse">
<stop stop-color="#5D4F77"/>
<stop offset="1" stop-color="#553C83"/>
</linearGradient>
<linearGradient id="paint40_linear_42_125" x1="36.8905" y1="100.036" x2="40.4145" y2="100.036" gradientUnits="userSpaceOnUse">
<stop stop-color="#3A97DB"/>
<stop offset="1" stop-color="#49A3E2"/>
</linearGradient>
<radialGradient id="paint41_radial_42_125" cx="0" cy="0" r="1" gradientUnits="userSpaceOnUse" gradientTransform="translate(39.316 93.3187) rotate(90) scale(13.7812 1.10541)">
<stop offset="0.442" stop-color="#46A4E7"/>
<stop offset="1" stop-color="#46A4E7" stop-opacity="0"/>
</radialGradient>
<linearGradient id="paint42_linear_42_125" x1="54.1092" y1="100.075" x2="56.7552" y2="100.075" gradientUnits="userSpaceOnUse">
<stop stop-color="#3A97DB"/>
<stop offset="1" stop-color="#49A3E2"/>
</linearGradient>
<linearGradient id="paint43_linear_42_125" x1="58.2947" y1="98.1776" x2="57.3419" y2="98.1776" gradientUnits="userSpaceOnUse">
<stop stop-color="#3D9AD9"/>
<stop offset="1" stop-color="#3D9AD9" stop-opacity="0"/>
</linearGradient>
<radialGradient id="paint44_radial_42_125" cx="0" cy="0" r="1" gradientUnits="userSpaceOnUse" gradientTransform="translate(84.2181 47.3212) rotate(103.169) scale(15.0766 17.9098)">
<stop offset="0.043" stop-color="#FFC135"/>
<stop offset="1" stop-color="#E26839"/>
</radialGradient>
<radialGradient id="paint45_radial_42_125" cx="0" cy="0" r="1" gradientUnits="userSpaceOnUse" gradientTransform="translate(81.2793 48.3734) rotate(53.902) scale(1.96032 1.66529)">
<stop stop-color="#E18C2A"/>
<stop offset="1" stop-color="#E18C2A" stop-opacity="0"/>
</radialGradient>
<radialGradient id="paint46_radial_42_125" cx="0" cy="0" r="1" gradientUnits="userSpaceOnUse" gradientTransform="translate(40.5208 47.7815) rotate(71.2341) scale(16.3159 7.41639)">
<stop stop-color="#D57A26"/>
<stop offset="1" stop-color="#D06A3C"/>
</radialGradient>
<radialGradient id="paint47_radial_42_125" cx="0" cy="0" r="1" gradientUnits="userSpaceOnUse" gradientTransform="translate(43.1327 47.7485) rotate(72.29) scale(4.12221 3.61604)">
<stop offset="0.263" stop-color="#BE691E"/>
<stop offset="0.977" stop-color="#BE691E" stop-opacity="0"/>
</radialGradient>
<radialGradient id="paint48_radial_42_125" cx="0" cy="0" r="1" gradientUnits="userSpaceOnUse" gradientTransform="translate(73.4265 43.6157) rotate(180) scale(20.5847 36.414)">
<stop stop-color="#FFE846"/>
<stop offset="1" stop-color="#F5A129"/>
</radialGradient>
<radialGradient id="paint49_radial_42_125" cx="0" cy="0" r="1" gradientUnits="userSpaceOnUse" gradientTransform="translate(61.6061 68.5598) rotate(-90) scale(13.3317 51.8616)">
<stop offset="0.082" stop-color="#E27426"/>
<stop offset="1" stop-color="#FFA041" stop-opacity="0"/>
</radialGradient>
<radialGradient id="paint50_radial_42_125" cx="0" cy="0" r="1" gradientUnits="userSpaceOnUse" gradientTransform="translate(82.6757 42.7022) rotate(93.7745) scale(24.0785 8.85227)">
<stop offset="0.39" stop-color="#FFD930"/>
<stop offset="1" stop-color="#FFD930" stop-opacity="0"/>
</radialGradient>
<radialGradient id="paint51_radial_42_125" cx="0" cy="0" r="1" gradientUnits="userSpaceOnUse" gradientTransform="translate(54.1328 38.9655) rotate(-90) scale(5.56707 6.70245)">
<stop offset="0.276" stop-color="#F59632"/>
<stop offset="1" stop-color="#F59632" stop-opacity="0"/>
</radialGradient>
<radialGradient id="paint52_radial_42_125" cx="0" cy="0" r="1" gradientUnits="userSpaceOnUse" gradientTransform="translate(72.1704 37.3472) rotate(-90) scale(6.04501 7.84055)">
<stop offset="0.178" stop-color="#FFBE3A"/>
<stop offset="1" stop-color="#FFBE3A" stop-opacity="0"/>
</radialGradient>
<linearGradient id="paint53_linear_42_125" x1="62.37" y1="46.8759" x2="65.7366" y2="46.8759" gradientUnits="userSpaceOnUse">
<stop stop-color="#FFC92F"/>
<stop offset="1" stop-color="#FFEA47"/>
</linearGradient>
<linearGradient id="paint54_linear_42_125" x1="58.1451" y1="46.2656" x2="62.374" y2="46.4979" gradientUnits="userSpaceOnUse">
<stop stop-color="#F49F22"/>
<stop offset="1" stop-color="#F49F22" stop-opacity="0"/>
</linearGradient>
<linearGradient id="paint55_linear_42_125" x1="62.37" y1="48.447" x2="62.37" y2="51.8017" gradientUnits="userSpaceOnUse">
<stop stop-color="#E88830" stop-opacity="0"/>
<stop offset="0.845" stop-color="#E88830"/>
</linearGradient>
<linearGradient id="paint56_linear_42_125" x1="62.37" y1="39.5994" x2="62.37" y2="41.2492" gradientUnits="userSpaceOnUse">
<stop stop-color="#FAC137"/>
<stop offset="1" stop-color="#FAC137" stop-opacity="0"/>
</linearGradient>
<radialGradient id="paint57_radial_42_125" cx="0" cy="0" r="1" gradientUnits="userSpaceOnUse" gradientTransform="translate(57.9322 56.5649) rotate(-60.732) scale(2.79602 8.13641)">
<stop stop-color="#FFB534"/>
<stop offset="1" stop-color="#FFB534" stop-opacity="0"/>
</radialGradient>
<radialGradient id="paint58_radial_42_125" cx="0" cy="0" r="1" gradientUnits="userSpaceOnUse" gradientTransform="translate(62.37 57.5505) rotate(-90) scale(2.83791 11.4176)">
<stop stop-color="#89014E"/>
<stop offset="1" stop-color="#87004D"/>
</radialGradient>
<linearGradient id="paint59_linear_42_125" x1="83.4868" y1="21.3176" x2="43.6275" y2="21.3176" gradientUnits="userSpaceOnUse">
<stop stop-color="#FFE235"/>
<stop offset="1" stop-color="#D29935"/>
</linearGradient>
<radialGradient id="paint60_radial_42_125" cx="0" cy="0" r="1" gradientUnits="userSpaceOnUse" gradientTransform="translate(41.7769 37.3865) rotate(-90) scale(22.5184 39.8983)">
<stop offset="0.315" stop-color="#C98537"/>
<stop offset="1" stop-color="#C98537" stop-opacity="0"/>
</radialGradient>
<radialGradient id="paint61_radial_42_125" cx="0" cy="0" r="1" gradientUnits="userSpaceOnUse" gradientTransform="translate(81.5063 37.3865) rotate(-90) scale(14.3036 25.3431)">
<stop stop-color="#FFB52A"/>
<stop offset="1" stop-color="#FFB52A" stop-opacity="0"/>
</radialGradient>
<radialGradient id="paint62_radial_42_125" cx="0" cy="0" r="1" gradientUnits="userSpaceOnUse" gradientTransform="translate(78.5374 12.6709) rotate(-160.666) scale(17.1358 9.12597)">
<stop offset="0.347" stop-color="#FFE639"/>
<stop offset="1" stop-color="#FFE639" stop-opacity="0"/>
</radialGradient>
<radialGradient id="paint63_radial_42_125" cx="0" cy="0" r="1" gradientUnits="userSpaceOnUse" gradientTransform="translate(58.8066 6.40236) rotate(58.4653) scale(6.81409 15.7782)">
<stop offset="0.287" stop-color="#F3C130"/>
<stop offset="1" stop-color="#F3C130" stop-opacity="0"/>
</radialGradient>
<radialGradient id="paint64_radial_42_125" cx="0" cy="0" r="1" gradientUnits="userSpaceOnUse" gradientTransform="translate(63.3662 12.0802) rotate(160.16) scale(15.9356 4.43524)">
<stop stop-color="#FFDD30"/>
<stop offset="1" stop-color="#FFDC2B" stop-opacity="0"/>
</radialGradient>
<radialGradient id="paint65_radial_42_125" cx="0" cy="0" r="1" gradientUnits="userSpaceOnUse" gradientTransform="translate(40.9894 30.8227) rotate(-57.7244) scale(23.7298 26.2902)">
<stop offset="0.093" stop-color="#D67227"/>
<stop offset="0.233" stop-color="#EF8A23"/>
<stop offset="1" stop-color="#EF8A23" stop-opacity="0"/>
</radialGradient>
<radialGradient id="paint66_radial_42_125" cx="0" cy="0" r="1" gradientUnits="userSpaceOnUse" gradientTransform="translate(76.6238 16.6517) rotate(13.3069) scale(13.6994 7.66164)">
<stop stop-color="#FFEB3B"/>
<stop offset="1" stop-color="#FFEB3B" stop-opacity="0"/>
</radialGradient>
<radialGradient id="paint67_radial_42_125" cx="0" cy="0" r="1" gradientUnits="userSpaceOnUse" gradientTransform="translate(82.5632 34.7804) rotate(-120.119) scale(16.8596 9.40247)">
<stop stop-color="#EB8F29"/>
<stop offset="1" stop-color="#EB8F29" stop-opacity="0"/>
</radialGradient>
<radialGradient id="paint68_radial_42_125" cx="0" cy="0" r="1" gradientUnits="userSpaceOnUse" gradientTransform="translate(80.1242 33.5987) rotate(-120.695) scale(10.0844 7.22296)">
<stop offset="0.394" stop-color="#E48421"/>
<stop offset="1" stop-color="#E48421" stop-opacity="0"/>
</radialGradient>
<radialGradient id="paint69_radial_42_125" cx="0" cy="0" r="1" gradientUnits="userSpaceOnUse" gradientTransform="translate(81.2464 16.191) rotate(166.509) scale(19.43 21.0045)">
<stop offset="0.735" stop-color="#F29415" stop-opacity="0"/>
<stop offset="1" stop-color="#F29415"/>
</radialGradient>
<radialGradient id="paint70_radial_42_125" cx="0" cy="0" r="1" gradientUnits="userSpaceOnUse" gradientTransform="translate(75.9662 15.6988) rotate(107.002) scale(1.57999 7.2235)">
<stop offset="0.461" stop-color="#FFCE3C"/>
<stop offset="1" stop-color="#FFCE3C" stop-opacity="0"/>
</radialGradient>
<radialGradient id="paint71_radial_42_125" cx="0" cy="0" r="1" gradientUnits="userSpaceOnUse" gradientTransform="translate(70.9616 40.005) rotate(90) scale(3.19457 5.0813)">
<stop offset="0.802" stop-color="#925C51"/>
<stop offset="1" stop-color="#85534D"/>
</radialGradient>
<radialGradient id="paint72_radial_42_125" cx="0" cy="0" r="1" gradientUnits="userSpaceOnUse" gradientTransform="translate(70.0652 40.3398) rotate(-127.812) scale(1.48952 2.05069)">
<stop offset="0.766" stop-color="#FFE6E2" stop-opacity="0"/>
<stop offset="0.966" stop-color="#FFE6E2"/>
</radialGradient>
<linearGradient id="paint73_linear_42_125" x1="74.025" y1="40.2176" x2="72.7887" y2="40.9815" gradientUnits="userSpaceOnUse">
<stop stop-color="#B4948D"/>
<stop offset="1" stop-color="#B4948D" stop-opacity="0"/>
</linearGradient>
<radialGradient id="paint74_radial_42_125" cx="0" cy="0" r="1" gradientUnits="userSpaceOnUse" gradientTransform="translate(53.7784 40.005) rotate(90) scale(3.19473 5.08158)">
<stop offset="0.802" stop-color="#925C51"/>
<stop offset="1" stop-color="#85534D"/>
</radialGradient>
<linearGradient id="paint75_linear_42_125" x1="56.7079" y1="40.2176" x2="55.4715" y2="40.9815" gradientUnits="userSpaceOnUse">
<stop stop-color="#B4948D"/>
<stop offset="1" stop-color="#B4948D" stop-opacity="0"/>
</linearGradient>
<radialGradient id="paint76_radial_42_125" cx="0" cy="0" r="1" gradientUnits="userSpaceOnUse" gradientTransform="translate(53.2363 40.7564) rotate(-118.811) scale(1.94568 2.33877)">
<stop offset="0.766" stop-color="#FFE6E2" stop-opacity="0"/>
<stop offset="0.966" stop-color="#FFE6E2"/>
</radialGradient>
<linearGradient id="paint77_linear_42_125" x1="87.7118" y1="40.3239" x2="82.9592" y2="48.8919" gradientUnits="userSpaceOnUse">
<stop stop-color="#FFE343"/>
<stop offset="1" stop-color="#FFC136"/>
</linearGradient>
<radialGradient id="paint78_radial_42_125" cx="0" cy="0" r="1" gradientUnits="userSpaceOnUse" gradientTransform="translate(80.5495 40.0601) rotate(74.3475) scale(9.17309 8.75179)">
<stop offset="0.856" stop-color="#E1943D" stop-opacity="0"/>
<stop offset="1" stop-color="#E08F2E"/>
</radialGradient>
<radialGradient id="paint79_radial_42_125" cx="0" cy="0" r="1" gradientUnits="userSpaceOnUse" gradientTransform="translate(81.9709 42.206) rotate(-53.9198) scale(5.2671 4.4149)">
<stop offset="0.664" stop-color="#FFBD22"/>
<stop offset="1" stop-color="#FFBD22" stop-opacity="0"/>
</radialGradient>
<linearGradient id="paint80_linear_42_125" x1="39.3357" y1="43.0959" x2="45.0765" y2="42.5958" gradientUnits="userSpaceOnUse">
<stop stop-color="#E39726"/>
<stop offset="1" stop-color="#D9851D"/>
</linearGradient>
<radialGradient id="paint81_radial_42_125" cx="0" cy="0" r="1" gradientUnits="userSpaceOnUse" gradientTransform="translate(41.6476 40.7186) rotate(101.248) scale(8.33443 8.1935)">
<stop offset="0.775" stop-color="#C77937" stop-opacity="0"/>
<stop offset="1" stop-color="#C77937"/>
</radialGradient>
</defs>
</svg>
